<?xml version="1.0" encoding="UTF-8"?>
<svg xmlns="http://www.w3.org/2000/svg" xmlns:xlink="http://www.w3.org/1999/xlink" width="267px" height="300px" viewBox="0 0 267 300" version="1.1">
<defs>
<clipPath id="clip1">
  <path d="M 40.050781 150.621094 L 226.949219 150.621094 L 226.949219 171.449219 L 40.050781 171.449219 Z M 40.050781 150.621094 "/>
</clipPath>
<clipPath id="clip2">
  <path d="M 95.960938 177.667969 L 171.039062 177.667969 L 171.039062 187.21875 L 95.960938 187.21875 Z M 95.960938 177.667969 "/>
</clipPath>
<clipPath id="clip3">
  <path d="M 110.894531 112.78125 L 156.105469 112.78125 L 156.105469 149.378906 L 110.894531 149.378906 Z M 110.894531 112.78125 "/>
</clipPath>
</defs>
<g id="surface1">
<path style=" stroke:none;fill-rule:nonzero;fill:rgb(45.882353%,35.686275%,70.588235%);fill-opacity:1;" d="M 183.210938 34.171875 C 183.800781 34.171875 188.523438 36.53125 191.179688 37.414062 C 190.292969 37.710938 188.226562 36.824219 185.867188 35.941406 C 186.457031 35.941406 187.636719 36.238281 188.816406 36.824219 C 188.226562 36.234375 183.800781 34.761719 183.210938 34.171875 M 139.253906 25.039062 C 140.136719 24.746094 150.464844 26.21875 155.183594 26.511719 C 155.480469 26.21875 154.59375 26.21875 153.414062 25.921875 C 154.890625 25.628906 157.839844 26.511719 159.90625 26.808594 C 153.710938 27.101562 146.921875 25.332031 141.023438 25.921875 C 138.957031 25.921875 140.433594 25.335938 139.253906 25.039062 M 130.699219 25.039062 C 136.007812 25.039062 140.136719 25.039062 132.46875 25.628906 C 131.582031 25.332031 130.402344 25.332031 130.699219 25.039062 M 214.191406 49.496094 C 214.78125 49.496094 217.140625 52.148438 218.320312 53.03125 C 218.023438 53.328125 215.664062 50.96875 214.484375 50.085938 C 214.78125 50.378906 214.484375 50.085938 214.191406 49.496094 M 208.289062 45.664062 C 205.929688 43.601562 205.042969 43.601562 204.75 42.425781 C 206.8125 43.601562 208.289062 44.78125 208.289062 45.664062 M 170.230469 27.101562 C 170.527344 26.808594 171.117188 27.398438 172.589844 27.691406 C 170.820312 27.394531 171.117188 27.691406 171.707031 28.28125 C 169.640625 27.984375 169.050781 27.691406 169.640625 27.101562 C 170.820312 27.691406 171.117188 27.398438 170.230469 27.101562 M 86.441406 30.636719 C 86.441406 30.34375 87.621094 29.753906 88.507812 29.460938 C 87.621094 30.046875 87.917969 30.34375 89.394531 29.753906 C 89.394531 30.046875 87.621094 30.636719 86.441406 31.226562 C 87.03125 30.933594 87.621094 30.046875 86.441406 30.636719 M 176.132812 24.15625 C 175.246094 24.449219 172 22.683594 168.753906 22.09375 C 166.984375 21.503906 175.835938 23.566406 176.132812 24.15625 M 2.066406 169.714844 C 3.835938 177.082031 2.65625 176.789062 2.066406 169.714844 M 2.359375 125.515625 C 2.65625 124.339844 2.949219 121.097656 3.246094 121.390625 C 2.359375 128.464844 0.882812 131.707031 0.589844 137.007812 C 1.476562 132.296875 0.292969 139.660156 0 141.429688 C 0.296875 143.785156 0.296875 139.957031 0.886719 140.546875 C 1.476562 141.429688 -0.292969 153.804688 0.296875 147.027344 C -0.292969 153.214844 0.296875 159.992188 1.476562 161.761719 C 0 171.191406 7.375 192.40625 8.851562 196.824219 C 9.144531 197.121094 8.851562 195.351562 9.441406 196.53125 C 10.03125 200.363281 12.6875 203.011719 13.570312 207.136719 C 14.457031 208.316406 17.996094 214.800781 18.585938 216.273438 C 19.765625 218.628906 20.355469 218.335938 21.535156 220.691406 C 25.078125 227.46875 30.683594 233.953125 35.992188 240.140625 C 53.105469 260.175781 79.363281 276.675781 108.570312 282.570312 C 137.777344 288.757812 168.460938 284.339844 192.359375 272.847656 C 193.832031 271.964844 193.539062 271.667969 195.308594 271.078125 C 203.570312 268.425781 213.601562 259.882812 219.207031 256.640625 C 221.859375 253.695312 228.941406 248.683594 229.828125 245.738281 C 234.84375 241.613281 239.859375 234.835938 242.511719 230.417969 C 243.988281 228.058594 245.167969 228.058594 245.757812 226.585938 C 245.460938 226.585938 250.476562 220.398438 251.953125 216.863281 C 251.363281 216.863281 250.480469 218.628906 250.480469 216.863281 C 261.097656 196.53125 267 169.128906 263.753906 150.269531 C 264.34375 173.546875 258.445312 199.476562 247.234375 215.976562 C 242.21875 226.585938 231.890625 238.078125 222.449219 246.328125 C 220.976562 247.800781 219.5 249.570312 217.730469 250.75 C 212.125 255.460938 205.929688 259.292969 199.4375 262.828125 C 184.097656 271.375 166.984375 278.742188 146.921875 279.035156 C 181.441406 276.089844 212.417969 258.703125 229.53125 237.488281 C 216.550781 250.160156 210.945312 255.167969 196.488281 262.535156 C 195.308594 264.597656 185.574219 268.722656 179.082031 270.488281 C 182.917969 268.722656 190.882812 265.777344 193.539062 263.417969 C 172 273.730469 148.105469 279.625 125.683594 276.382812 C 134.238281 276.382812 146.332031 276.679688 157.839844 274.617188 C 159.609375 274.027344 160.496094 273.4375 162.558594 273.140625 C 184.984375 268.132812 206.519531 257.230469 221.859375 241.910156 C 213.011719 249.863281 199.734375 259.292969 191.179688 262.238281 C 199.144531 257.820312 213.601562 249.273438 218.320312 242.792969 C 208.878906 252.222656 191.179688 261.652344 179.96875 265.777344 C 178.195312 266.070312 181.148438 264.597656 178.195312 265.777344 C 174.65625 266.660156 176.132812 266.660156 175.246094 267.25 C 161.675781 271.078125 146.039062 274.320312 133.058594 273.140625 C 130.699219 272.847656 129.8125 272.257812 127.746094 272.257812 C 125.386719 271.964844 123.320312 271.964844 120.667969 271.964844 C 110.339844 270.785156 99.128906 266.660156 90.867188 263.125 C 86.441406 261.0625 82.015625 259.589844 77.59375 256.9375 C 74.050781 254.875 71.101562 252.515625 68.152344 250.160156 C 56.941406 241.910156 47.5 233.660156 38.648438 221.871094 C 22.714844 199.773438 14.457031 172.074219 15.636719 144.671875 C 16.816406 117.265625 27.730469 90.453125 45.140625 70.710938 C 44.253906 71.59375 46.320312 68.648438 48.089844 66.878906 C 48.089844 67.46875 47.792969 68.355469 49.859375 66.292969 C 51.628906 64.230469 49.269531 65.703125 50.152344 64.523438 C 68.445312 44.488281 100.308594 28.28125 133.058594 27.691406 C 134.238281 26.808594 136.300781 25.628906 138.664062 26.21875 C 138.664062 26.511719 137.1875 26.511719 137.1875 26.511719 C 140.433594 26.21875 143.382812 26.21875 144.859375 26.808594 C 145.152344 26.511719 143.679688 26.21875 144.859375 26.21875 C 146.921875 26.808594 147.511719 26.21875 148.695312 26.808594 C 147.808594 26.808594 146.921875 26.808594 146.332031 27.101562 C 153.710938 27.101562 158.429688 28.871094 165.804688 29.460938 C 161.96875 28.574219 161.085938 28.574219 158.136719 27.691406 C 161.378906 28.28125 162.855469 28.871094 164.332031 28.574219 C 163.742188 28.574219 164.035156 27.691406 164.625 27.984375 C 170.527344 29.460938 171.117188 30.046875 177.3125 32.109375 C 177.902344 31.523438 174.65625 31.226562 173.769531 30.34375 C 179.671875 32.40625 184.980469 33.878906 188.523438 36.234375 C 187.34375 35.351562 183.804688 34.171875 181.148438 32.996094 C 180.851562 33.289062 182.03125 33.585938 182.328125 34.171875 C 179.375 32.699219 175.246094 31.226562 171.117188 30.636719 C 174.65625 31.523438 177.015625 32.699219 178.492188 33.289062 C 175.246094 32.699219 171.117188 30.636719 166.394531 29.753906 C 174.066406 32.109375 188.523438 37.414062 197.375 42.128906 C 194.128906 40.066406 190.292969 38.59375 188.226562 37.414062 C 189.996094 37.710938 192.0625 38.886719 192.0625 38.296875 C 194.128906 39.183594 196.78125 41.246094 198.257812 41.539062 C 195.601562 39.773438 190.292969 37.121094 188.523438 36.234375 C 210.648438 46.253906 230.417969 63.050781 243.101562 84.558594 C 244.28125 86.621094 246.054688 91.335938 247.527344 91.925781 C 247.234375 90.453125 246.054688 89.570312 244.875 87.210938 C 245.464844 87.210938 245.464844 86.328125 244.875 85.445312 C 243.695312 83.972656 244.875 86.621094 243.691406 85.148438 C 238.382812 75.425781 231.890625 66.878906 221.859375 57.453125 C 227.464844 62.753906 223.335938 58.925781 222.15625 57.15625 C 229.824219 63.933594 238.675781 75.425781 242.511719 81.320312 C 241.921875 80.433594 241.628906 79.847656 241.921875 79.847656 C 249.003906 91.925781 253.429688 102.828125 257.855469 118.445312 C 258.148438 118.742188 257.855469 117.265625 258.445312 118.152344 C 261.394531 130.527344 262.28125 140.839844 261.984375 150.269531 C 264.34375 134.359375 259.035156 109.605469 249.59375 90.160156 C 248.414062 87.800781 248.414062 89.570312 247.234375 86.917969 C 247.234375 86.035156 246.347656 84.265625 245.757812 83.085938 C 233.957031 63.640625 219.5 49.789062 202.386719 38.886719 C 203.566406 39.476562 205.929688 41.246094 205.929688 40.949219 C 174.066406 20.03125 137.1875 17.082031 106.800781 23.566406 C 104.734375 24.449219 103.851562 25.335938 101.488281 26.511719 C 105.914062 25.039062 108.570312 24.746094 112.699219 23.859375 C 113.585938 22.976562 108.863281 24.15625 110.929688 23.269531 C 111.226562 23.566406 115.058594 22.683594 115.945312 22.976562 C 115.945312 23.273438 114.765625 23.566406 114.46875 23.859375 C 124.207031 21.796875 134.238281 21.503906 142.792969 22.09375 C 137.777344 22.386719 128.632812 21.503906 125.683594 22.976562 C 128.632812 22.683594 132.761719 22.386719 135.417969 22.683594 C 131.878906 22.683594 125.386719 22.976562 122.4375 23.269531 C 122.140625 22.976562 127.15625 22.386719 123.910156 22.386719 C 122.4375 22.683594 120.074219 22.683594 119.191406 23.566406 C 93.820312 25.921875 69.035156 39.183594 51.628906 54.800781 C 48.089844 57.746094 43.960938 60.988281 41.304688 64.226562 C 34.8125 71.59375 30.683594 78.960938 25.960938 85.445312 C 28.914062 79.257812 35.402344 69.828125 43.074219 61.871094 C 50.746094 53.914062 59.003906 47.136719 63.429688 43.601562 C 63.429688 44.78125 70.511719 39.183594 73.167969 37.414062 C 71.398438 38.886719 74.347656 36.824219 74.9375 37.121094 C 84.378906 31.523438 92.046875 29.460938 100.605469 26.21875 C 98.539062 26.808594 96.769531 27.394531 96.472656 27.101562 C 98.539062 26.511719 99.71875 25.921875 99.425781 25.628906 C 91.164062 27.984375 78.183594 33.585938 67.855469 39.773438 C 86.441406 27.101562 110.046875 19.441406 133.351562 19.144531 C 156.660156 18.558594 179.375 24.449219 197.375 33.878906 C 209.46875 39.183594 220.976562 48.90625 230.121094 58.335938 C 232.777344 60.691406 230.710938 57.746094 234.546875 61.871094 C 233.367188 61.28125 232.480469 60.691406 233.957031 62.460938 C 236.316406 65.113281 233.367188 60.398438 237.203125 65.113281 C 236.90625 65.113281 235.726562 63.640625 235.726562 64.226562 C 246.054688 73.363281 254.019531 89.863281 258.738281 100.765625 C 257.558594 96.347656 254.609375 90.160156 252.25 85.738281 C 259.328125 98.703125 261.6875 106.363281 264.640625 117.855469 C 265.820312 118.742188 264.050781 113.730469 265.230469 116.089844 C 265.523438 117.859375 265.820312 123.457031 267 124.339844 C 266.113281 118.742188 264.640625 111.964844 263.460938 110.785156 C 264.34375 111.375 261.984375 104.007812 260.507812 102.238281 C 259.917969 97.527344 255.789062 89.273438 252.25 83.085938 C 239.5625 58.335938 216.84375 38.003906 191.472656 26.808594 C 191.472656 26.21875 189.996094 25.628906 189.40625 25.039062 C 164.332031 14.433594 134.238281 11.484375 105.324219 18.261719 C 76.117188 25.332031 48.679688 42.128906 29.207031 66.292969 C 30.09375 63.34375 37.46875 57.746094 37.765625 55.390625 C 29.207031 64.523438 20.0625 76.605469 13.867188 89.570312 C 7.375 102.535156 3.835938 115.792969 2.359375 125.515625 "/>
<g clip-path="url(#clip1)" clip-rule="nonzero">
<path style=" stroke:none;fill-rule:nonzero;fill:rgb(45.882353%,35.686275%,70.588235%);fill-opacity:1;" d="M 43.78125 165.433594 C 43.121094 165.347656 42.523438 165.210938 41.980469 165.023438 C 41.445312 164.832031 41.003906 164.644531 40.660156 164.457031 C 40.320312 164.265625 40.148438 164.164062 40.152344 164.148438 L 40.050781 163.863281 C 40.074219 163.777344 40.132812 163.566406 40.222656 163.226562 C 40.3125 162.886719 40.421875 162.421875 40.550781 161.832031 C 40.675781 161.238281 40.78125 160.640625 40.855469 160.046875 L 42.238281 160.105469 C 42.113281 161.09375 42.09375 161.847656 42.179688 162.367188 C 42.269531 162.886719 42.488281 163.269531 42.847656 163.511719 C 43.203125 163.757812 43.765625 163.925781 44.53125 164.023438 C 45.367188 164.128906 46.066406 164.019531 46.625 163.691406 C 47.183594 163.367188 47.507812 162.875 47.589844 162.21875 C 47.660156 161.652344 47.480469 161.144531 47.039062 160.699219 C 46.601562 160.257812 45.921875 159.726562 44.996094 159.109375 C 44.953125 159.074219 44.820312 158.980469 44.59375 158.832031 C 43.527344 158.117188 42.714844 157.429688 42.152344 156.765625 C 41.585938 156.101562 41.363281 155.3125 41.480469 154.398438 C 41.582031 153.589844 41.914062 152.890625 42.480469 152.292969 C 43.042969 151.695312 43.765625 151.261719 44.65625 150.996094 C 45.539062 150.726562 46.507812 150.65625 47.554688 150.789062 C 48.167969 150.867188 48.742188 150.988281 49.269531 151.144531 C 49.796875 151.300781 50.214844 151.449219 50.523438 151.578125 C 50.835938 151.710938 51.03125 151.792969 51.101562 151.835938 L 51.167969 152.042969 C 51.09375 152.246094 50.953125 152.714844 50.738281 153.4375 C 50.523438 154.164062 50.332031 154.949219 50.164062 155.796875 L 48.9375 155.753906 L 48.773438 155.597656 C 48.792969 155.554688 48.824219 155.433594 48.863281 155.242188 C 48.902344 155.050781 48.9375 154.835938 48.96875 154.597656 C 49.0625 153.859375 48.945312 153.324219 48.613281 152.988281 C 48.28125 152.648438 47.660156 152.421875 46.746094 152.308594 C 46.011719 152.214844 45.382812 152.320312 44.855469 152.625 C 44.332031 152.929688 44.035156 153.363281 43.964844 153.917969 C 43.890625 154.484375 44.078125 154.996094 44.519531 155.445312 C 44.964844 155.898438 45.667969 156.445312 46.621094 157.078125 C 47.460938 157.644531 48.128906 158.121094 48.617188 158.515625 C 49.109375 158.914062 49.511719 159.386719 49.832031 159.929688 C 50.148438 160.46875 50.269531 161.070312 50.183594 161.730469 C 50.074219 162.597656 49.734375 163.335938 49.160156 163.945312 C 48.589844 164.558594 47.835938 164.996094 46.90625 165.257812 C 45.976562 165.519531 44.933594 165.578125 43.78125 165.433594 Z M 58.203125 167.089844 C 56.566406 166.914062 55.359375 166.363281 54.585938 165.433594 C 53.8125 164.5 53.511719 163.230469 53.683594 161.628906 L 54.464844 154.289062 C 54.515625 153.8125 54.496094 153.484375 54.410156 153.308594 C 54.320312 153.132812 54.117188 153.027344 53.804688 152.992188 C 53.652344 152.976562 53.5 152.96875 53.347656 152.96875 C 53.199219 152.96875 53.101562 152.964844 53.058594 152.960938 L 53.019531 152.863281 L 53.304688 151.691406 C 53.496094 151.726562 53.871094 151.78125 54.425781 151.855469 C 54.980469 151.929688 55.554688 151.996094 56.160156 152.0625 C 56.546875 152.101562 57.023438 152.125 57.585938 152.132812 C 58.144531 152.140625 58.507812 152.144531 58.675781 152.148438 L 58.410156 153.367188 C 57.878906 153.371094 57.511719 153.457031 57.3125 153.617188 C 57.113281 153.777344 56.984375 154.058594 56.925781 154.460938 L 56.042969 161.035156 C 55.902344 162.367188 56.082031 163.425781 56.582031 164.207031 C 57.085938 164.992188 57.875 165.441406 58.957031 165.554688 C 60.039062 165.667969 60.894531 165.464844 61.53125 164.9375 C 62.164062 164.414062 62.539062 163.589844 62.65625 162.464844 C 62.769531 161.28125 62.894531 159.929688 63.03125 158.421875 C 63.167969 156.914062 63.261719 155.847656 63.3125 155.230469 C 63.335938 154.71875 63.308594 154.382812 63.230469 154.222656 C 63.144531 154.0625 62.957031 153.964844 62.65625 153.933594 C 62.492188 153.917969 62.316406 153.90625 62.136719 153.902344 C 61.953125 153.898438 61.832031 153.890625 61.769531 153.886719 L 61.734375 153.789062 L 62.042969 152.617188 C 62.222656 152.636719 62.570312 152.683594 63.078125 152.761719 C 63.585938 152.839844 64.09375 152.90625 64.605469 152.957031 C 65.039062 153.003906 65.515625 153.027344 66.03125 153.027344 C 66.546875 153.03125 66.878906 153.035156 67.03125 153.035156 L 66.789062 154.234375 C 66.347656 154.265625 66.027344 154.308594 65.820312 154.371094 C 65.617188 154.433594 65.46875 154.53125 65.378906 154.664062 C 65.289062 154.800781 65.226562 155.019531 65.195312 155.316406 L 64.417969 162.628906 C 64.246094 164.25 63.621094 165.445312 62.546875 166.21875 C 61.46875 166.992188 60.019531 167.28125 58.203125 167.089844 Z M 71.109375 168.351562 C 70.449219 168.296875 69.84375 168.179688 69.296875 168.011719 C 68.753906 167.84375 68.304688 167.671875 67.957031 167.5 C 67.605469 167.324219 67.433594 167.226562 67.433594 167.210938 L 67.320312 166.929688 C 67.34375 166.84375 67.394531 166.628906 67.46875 166.285156 C 67.546875 165.941406 67.636719 165.476562 67.742188 164.878906 C 67.847656 164.28125 67.925781 163.683594 67.976562 163.082031 L 69.363281 163.089844 C 69.277344 164.082031 69.285156 164.835938 69.394531 165.351562 C 69.5 165.867188 69.738281 166.242188 70.101562 166.46875 C 70.46875 166.699219 71.035156 166.847656 71.804688 166.914062 C 72.648438 166.988281 73.339844 166.851562 73.882812 166.503906 C 74.433594 166.160156 74.734375 165.65625 74.792969 164.996094 C 74.84375 164.425781 74.640625 163.925781 74.183594 163.5 C 73.730469 163.074219 73.027344 162.570312 72.078125 161.988281 C 72.035156 161.953125 71.898438 161.867188 71.667969 161.726562 C 70.574219 161.050781 69.734375 160.394531 69.144531 159.753906 C 68.558594 159.113281 68.304688 158.332031 68.382812 157.417969 C 68.453125 156.605469 68.761719 155.890625 69.300781 155.273438 C 69.839844 154.652344 70.546875 154.191406 71.425781 153.890625 C 72.300781 153.589844 73.261719 153.484375 74.316406 153.578125 C 74.933594 153.628906 75.507812 153.726562 76.042969 153.863281 C 76.574219 154 76.996094 154.128906 77.3125 154.25 C 77.628906 154.367188 77.824219 154.445312 77.898438 154.480469 L 77.972656 154.6875 C 77.90625 154.894531 77.78125 155.367188 77.597656 156.101562 C 77.410156 156.832031 77.25 157.625 77.113281 158.476562 L 75.886719 158.480469 L 75.71875 158.332031 C 75.738281 158.289062 75.761719 158.167969 75.796875 157.972656 C 75.828125 157.78125 75.855469 157.566406 75.875 157.324219 C 75.941406 156.585938 75.800781 156.054688 75.457031 155.730469 C 75.113281 155.40625 74.480469 155.203125 73.566406 155.121094 C 72.828125 155.058594 72.203125 155.1875 71.6875 155.515625 C 71.175781 155.839844 70.894531 156.28125 70.847656 156.839844 C 70.796875 157.410156 71.003906 157.910156 71.460938 158.347656 C 71.925781 158.78125 72.648438 159.296875 73.625 159.898438 C 74.488281 160.429688 75.171875 160.882812 75.675781 161.257812 C 76.179688 161.632812 76.601562 162.089844 76.941406 162.621094 C 77.28125 163.148438 77.425781 163.742188 77.367188 164.40625 C 77.289062 165.277344 76.976562 166.027344 76.429688 166.660156 C 75.878906 167.296875 75.148438 167.761719 74.226562 168.058594 C 73.308594 168.355469 72.269531 168.453125 71.109375 168.351562 Z M 79.417969 169.011719 L 79.660156 167.804688 C 80.347656 167.714844 80.8125 167.542969 81.054688 167.292969 C 81.296875 167.046875 81.441406 166.609375 81.484375 165.976562 L 82.117188 156.855469 C 82.148438 156.375 82.113281 156.050781 82.011719 155.875 C 81.910156 155.703125 81.691406 155.605469 81.363281 155.582031 L 80.636719 155.578125 L 80.554688 155.4375 L 80.808594 154.324219 L 82.1875 154.4375 C 82.488281 154.472656 82.886719 154.507812 83.386719 154.539062 C 83.835938 154.570312 84.789062 154.574219 86.246094 154.546875 L 86.074219 155.761719 C 85.628906 155.804688 85.3125 155.871094 85.125 155.957031 C 84.941406 156.042969 84.804688 156.199219 84.722656 156.421875 C 84.640625 156.640625 84.566406 157.003906 84.503906 157.515625 L 84.132812 160.984375 L 87.546875 161.234375 C 88.390625 161.289062 89.410156 161.296875 90.609375 161.253906 L 90.886719 157.441406 C 90.917969 156.960938 90.882812 156.632812 90.777344 156.460938 C 90.679688 156.285156 90.460938 156.1875 90.128906 156.167969 C 89.921875 156.152344 89.679688 156.152344 89.40625 156.164062 L 89.324219 156.023438 L 89.558594 154.90625 L 90.1875 154.96875 L 92.0625 155.117188 C 92.515625 155.148438 93.511719 155.152344 95.054688 155.136719 L 94.867188 156.347656 C 94.300781 156.382812 93.921875 156.480469 93.722656 156.632812 C 93.519531 156.785156 93.398438 157.082031 93.355469 157.515625 C 93.164062 159 92.980469 160.65625 92.808594 162.488281 C 92.632812 164.324219 92.507812 165.796875 92.433594 166.910156 C 92.394531 167.496094 92.4375 167.898438 92.554688 168.121094 C 92.675781 168.339844 92.925781 168.460938 93.304688 168.488281 C 93.46875 168.5 93.78125 168.496094 94.234375 168.480469 L 94.316406 168.601562 L 94.03125 169.804688 C 93.835938 169.792969 93.679688 169.773438 93.5625 169.75 C 92.476562 169.648438 91.632812 169.578125 91.03125 169.535156 L 88.179688 169.390625 L 88.464844 168.1875 C 88.933594 168.203125 89.289062 168.160156 89.53125 168.054688 C 89.773438 167.949219 89.949219 167.746094 90.058594 167.445312 C 90.171875 167.140625 90.246094 166.675781 90.289062 166.039062 L 90.5 162.859375 L 87.5 162.636719 C 87.152344 162.613281 86.660156 162.601562 86.023438 162.605469 C 85.386719 162.609375 84.707031 162.617188 83.980469 162.628906 L 83.664062 166.304688 C 83.625 166.917969 83.65625 167.332031 83.765625 167.542969 C 83.871094 167.757812 84.113281 167.875 84.488281 167.898438 C 84.625 167.910156 84.941406 167.90625 85.445312 167.894531 L 85.503906 168.011719 L 85.21875 169.21875 C 84.980469 169.1875 84.640625 169.148438 84.203125 169.105469 C 83.769531 169.058594 83.347656 169.023438 82.9375 168.996094 C 82.324219 168.957031 81.628906 168.9375 80.855469 168.9375 C 80.082031 168.9375 79.605469 168.964844 79.417969 169.011719 Z M 102.703125 170.320312 L 102.621094 170.15625 L 102.757812 169.054688 C 103.53125 169.027344 104.046875 168.964844 104.300781 168.871094 C 104.550781 168.777344 104.683594 168.585938 104.695312 168.296875 C 104.707031 168.027344 104.667969 167.707031 104.578125 167.34375 L 104.039062 165.191406 C 103.664062 165.160156 102.921875 165.117188 101.820312 165.070312 C 101.085938 165.039062 100.304688 165.058594 99.488281 165.128906 L 98.671875 167.179688 C 98.53125 167.5625 98.460938 167.824219 98.453125 167.960938 C 98.441406 168.261719 98.527344 168.480469 98.707031 168.617188 C 98.894531 168.753906 99.203125 168.832031 99.640625 168.851562 L 100.796875 168.902344 L 100.859375 169.015625 L 100.671875 170.164062 C 100.476562 170.140625 100.046875 170.09375 99.382812 170.023438 C 98.722656 169.960938 98.082031 169.914062 97.464844 169.886719 C 96.875 169.863281 96.335938 169.847656 95.84375 169.839844 C 95.355469 169.832031 95.023438 169.835938 94.859375 169.84375 L 95.09375 168.609375 C 95.488281 168.566406 95.8125 168.429688 96.0625 168.207031 C 96.3125 167.984375 96.558594 167.589844 96.792969 167.027344 L 101.550781 155.707031 L 103.917969 155.425781 L 104.144531 155.503906 C 104.230469 155.886719 104.429688 156.753906 104.734375 158.109375 C 105.035156 159.464844 105.40625 161.039062 105.84375 162.835938 C 106.277344 164.628906 106.683594 166.203125 107.066406 167.566406 C 107.207031 168.128906 107.414062 168.523438 107.683594 168.753906 C 107.953125 168.988281 108.386719 169.148438 108.988281 169.234375 L 109.050781 169.347656 L 108.847656 170.449219 C 108.664062 170.425781 108.320312 170.394531 107.816406 170.359375 C 107.3125 170.320312 106.804688 170.292969 106.289062 170.269531 C 105.519531 170.238281 104.78125 170.230469 104.070312 170.25 C 103.359375 170.273438 102.902344 170.296875 102.703125 170.320312 Z M 100.023438 163.679688 L 101.832031 163.757812 C 102.4375 163.785156 103.074219 163.78125 103.738281 163.75 L 102.417969 158.167969 L 102.191406 158.15625 Z M 121.339844 171.449219 C 120.195312 169.550781 119.078125 167.742188 117.992188 166.03125 C 116.910156 164.3125 116.015625 162.921875 115.316406 161.859375 C 114.617188 160.792969 114.171875 160.121094 113.980469 159.84375 L 113.820312 159.839844 L 113.53125 168.34375 C 113.539062 168.707031 113.59375 168.957031 113.695312 169.097656 C 113.796875 169.234375 113.984375 169.308594 114.257812 169.316406 L 115.34375 169.316406 L 115.410156 169.433594 L 115.175781 170.625 C 114.996094 170.605469 114.648438 170.578125 114.136719 170.542969 C 113.625 170.507812 113.09375 170.484375 112.554688 170.472656 C 112.113281 170.460938 111.640625 170.476562 111.132812 170.515625 C 110.628906 170.558594 110.296875 170.585938 110.148438 170.597656 L 110.3125 169.359375 C 110.78125 169.308594 111.128906 169.175781 111.351562 168.960938 C 111.574219 168.746094 111.699219 168.417969 111.726562 167.964844 L 112.246094 158.492188 C 112.253906 158.027344 112.132812 157.691406 111.871094 157.488281 C 111.613281 157.289062 111.105469 157.140625 110.351562 157.046875 L 110.265625 156.886719 L 110.449219 155.851562 C 110.597656 155.867188 110.925781 155.898438 111.421875 155.941406 C 111.917969 155.984375 112.339844 156.007812 112.6875 156.015625 C 113.039062 156.023438 113.398438 156.019531 113.765625 156.003906 C 114.136719 155.992188 114.375 155.980469 114.480469 155.96875 C 115.453125 157.585938 116.4375 159.179688 117.4375 160.742188 C 118.433594 162.308594 119.265625 163.59375 119.929688 164.605469 C 120.59375 165.617188 121.011719 166.25 121.1875 166.511719 L 121.347656 166.515625 L 121.515625 158.394531 C 121.53125 157.746094 121.289062 157.417969 120.789062 157.40625 L 119.972656 157.40625 L 119.910156 157.269531 L 120.117188 156.101562 C 120.296875 156.121094 120.628906 156.144531 121.113281 156.179688 C 121.59375 156.214844 122.09375 156.238281 122.609375 156.25 C 123.03125 156.257812 123.503906 156.246094 124.027344 156.214844 C 124.546875 156.179688 124.882812 156.160156 125.03125 156.148438 L 124.894531 157.386719 C 124.378906 157.449219 124 157.589844 123.761719 157.800781 C 123.519531 158.015625 123.386719 158.339844 123.363281 158.777344 L 122.757812 171.1875 Z M 127.699219 170.871094 L 127.882812 169.671875 C 128.609375 169.613281 129.121094 169.519531 129.414062 169.390625 C 129.707031 169.265625 129.90625 169.039062 130.003906 168.714844 C 130.101562 168.394531 130.15625 167.847656 130.15625 167.074219 L 130.179688 157.574219 C 129.078125 157.601562 128.324219 157.671875 127.914062 157.78125 C 127.507812 157.894531 127.222656 158.128906 127.0625 158.480469 C 126.902344 158.835938 126.761719 159.496094 126.640625 160.460938 L 125.210938 160.570312 C 125.367188 159.226562 125.476562 157.777344 125.542969 156.226562 L 125.769531 156.023438 L 127.804688 156.277344 L 134.851562 156.296875 L 136.9375 156.050781 L 137.164062 156.257812 C 137.21875 157.839844 137.3125 159.25 137.445312 160.488281 L 136.015625 160.597656 C 135.871094 159.585938 135.722656 158.898438 135.570312 158.535156 C 135.421875 158.175781 135.15625 157.9375 134.777344 157.820312 C 134.398438 157.707031 133.695312 157.628906 132.671875 157.578125 C 132.59375 158.558594 132.515625 160.113281 132.445312 162.238281 C 132.371094 164.367188 132.335938 166.289062 132.332031 168.011719 C 132.328125 168.566406 132.425781 168.960938 132.617188 169.195312 C 132.8125 169.429688 133.140625 169.550781 133.59375 169.550781 C 134 169.550781 134.40625 169.53125 134.816406 169.488281 L 134.90625 169.601562 L 134.699219 170.867188 C 133.25 170.800781 132.046875 170.769531 131.097656 170.765625 C 130.039062 170.761719 128.90625 170.796875 127.699219 170.871094 Z M 146.960938 170.910156 C 146.300781 170.925781 145.6875 170.875 145.125 170.765625 C 144.5625 170.65625 144.101562 170.535156 143.734375 170.398438 C 143.367188 170.261719 143.1875 170.183594 143.183594 170.167969 L 143.042969 169.898438 C 143.058594 169.8125 143.082031 169.59375 143.121094 169.246094 C 143.160156 168.894531 143.199219 168.421875 143.242188 167.816406 C 143.285156 167.210938 143.296875 166.609375 143.285156 166.003906 L 144.664062 165.867188 C 144.683594 166.859375 144.773438 167.609375 144.933594 168.109375 C 145.097656 168.613281 145.371094 168.957031 145.761719 169.148438 C 146.148438 169.335938 146.726562 169.421875 147.5 169.410156 C 148.34375 169.390625 149.019531 169.183594 149.523438 168.777344 C 150.03125 168.375 150.277344 167.84375 150.265625 167.179688 C 150.253906 166.609375 150 166.132812 149.5 165.757812 C 149.003906 165.382812 148.25 164.957031 147.246094 164.480469 C 147.199219 164.449219 147.054688 164.378906 146.808594 164.261719 C 145.648438 163.710938 144.742188 163.148438 144.089844 162.574219 C 143.4375 161.996094 143.101562 161.246094 143.082031 160.328125 C 143.066406 159.515625 143.292969 158.773438 143.765625 158.101562 C 144.234375 157.425781 144.890625 156.890625 145.730469 156.5 C 146.566406 156.105469 147.515625 155.898438 148.570312 155.878906 C 149.1875 155.867188 149.769531 155.898438 150.316406 155.980469 C 150.863281 156.058594 151.296875 156.140625 151.621094 156.226562 C 151.953125 156.3125 152.152344 156.367188 152.230469 156.394531 L 152.324219 156.59375 C 152.285156 156.808594 152.210938 157.289062 152.101562 158.035156 C 151.996094 158.785156 151.921875 159.589844 151.878906 160.449219 L 150.660156 160.589844 L 150.472656 160.457031 C 150.488281 160.410156 150.5 160.289062 150.511719 160.09375 C 150.523438 159.898438 150.527344 159.679688 150.523438 159.4375 C 150.507812 158.699219 150.3125 158.183594 149.9375 157.898438 C 149.558594 157.613281 148.910156 157.476562 147.988281 157.496094 C 147.25 157.511719 146.640625 157.707031 146.164062 158.085938 C 145.691406 158.464844 145.460938 158.933594 145.46875 159.492188 C 145.480469 160.0625 145.738281 160.539062 146.242188 160.925781 C 146.75 161.308594 147.523438 161.746094 148.558594 162.234375 C 149.472656 162.671875 150.203125 163.050781 150.746094 163.367188 C 151.289062 163.691406 151.753906 164.097656 152.148438 164.589844 C 152.542969 165.078125 152.746094 165.65625 152.761719 166.320312 C 152.777344 167.191406 152.546875 167.972656 152.070312 168.660156 C 151.59375 169.351562 150.914062 169.890625 150.03125 170.285156 C 149.148438 170.679688 148.125 170.890625 146.960938 170.910156 Z M 155.292969 170.683594 L 155.40625 169.457031 C 156.078125 169.292969 156.523438 169.074219 156.738281 168.796875 C 156.953125 168.527344 157.050781 168.074219 157.023438 167.441406 L 156.675781 158.308594 C 156.65625 157.828125 156.589844 157.503906 156.46875 157.34375 C 156.347656 157.183594 156.121094 157.109375 155.792969 157.121094 L 155.066406 157.195312 L 154.972656 157.0625 L 155.109375 155.925781 L 156.488281 155.894531 C 156.792969 155.898438 157.191406 155.886719 157.691406 155.867188 C 158.144531 155.851562 159.089844 155.75 160.535156 155.574219 L 160.496094 156.796875 C 160.058594 156.890625 159.75 156.988281 159.574219 157.089844 C 159.398438 157.199219 159.28125 157.367188 159.222656 157.597656 C 159.164062 157.824219 159.128906 158.191406 159.121094 158.707031 L 159.125 162.195312 L 162.542969 162.082031 C 163.386719 162.046875 164.40625 161.945312 165.59375 161.777344 L 165.460938 157.953125 C 165.441406 157.472656 165.371094 157.152344 165.25 156.988281 C 165.128906 156.828125 164.90625 156.753906 164.570312 156.769531 C 164.363281 156.777344 164.121094 156.800781 163.851562 156.84375 L 163.753906 156.710938 L 163.867188 155.574219 L 164.5 155.570312 L 166.378906 155.519531 C 166.835938 155.5 167.828125 155.398438 169.359375 155.21875 L 169.300781 156.441406 C 168.742188 156.539062 168.375 156.675781 168.195312 156.847656 C 168.007812 157.023438 167.917969 157.328125 167.921875 157.761719 C 167.890625 159.261719 167.886719 160.929688 167.910156 162.769531 C 167.933594 164.609375 167.964844 166.089844 168.011719 167.203125 C 168.035156 167.789062 168.117188 168.1875 168.261719 168.394531 C 168.40625 168.597656 168.667969 168.695312 169.042969 168.679688 C 169.210938 168.671875 169.519531 168.636719 169.96875 168.574219 L 170.0625 168.683594 L 169.90625 169.910156 C 169.714844 169.917969 169.558594 169.917969 169.433594 169.90625 C 168.347656 169.921875 167.5 169.941406 166.894531 169.964844 L 164.046875 170.125 L 164.203125 168.898438 C 164.667969 168.863281 165.015625 168.78125 165.246094 168.652344 C 165.476562 168.519531 165.628906 168.300781 165.707031 167.988281 C 165.785156 167.675781 165.8125 167.203125 165.785156 166.566406 L 165.65625 163.378906 L 162.648438 163.480469 C 162.296875 163.492188 161.808594 163.535156 161.179688 163.605469 C 160.542969 163.675781 159.867188 163.757812 159.148438 163.847656 L 159.226562 167.535156 C 159.253906 168.152344 159.328125 168.558594 159.457031 168.757812 C 159.589844 168.957031 159.839844 169.050781 160.214844 169.035156 C 160.351562 169.03125 160.667969 168.996094 161.167969 168.929688 L 161.238281 169.039062 L 161.082031 170.265625 C 160.839844 170.261719 160.5 170.261719 160.0625 170.261719 C 159.625 170.265625 159.203125 170.273438 158.792969 170.292969 C 158.175781 170.316406 157.484375 170.371094 156.714844 170.453125 C 155.945312 170.539062 155.472656 170.613281 155.292969 170.683594 Z M 178.59375 169.566406 C 176.953125 169.671875 175.667969 169.332031 174.746094 168.542969 C 173.828125 167.753906 173.316406 166.554688 173.214844 164.945312 L 172.742188 157.582031 C 172.714844 157.101562 172.640625 156.785156 172.523438 156.625 C 172.40625 156.464844 172.191406 156.394531 171.871094 156.414062 C 171.722656 156.425781 171.570312 156.441406 171.421875 156.46875 C 171.273438 156.492188 171.175781 156.503906 171.132812 156.507812 L 171.082031 156.421875 L 171.164062 155.214844 C 171.359375 155.21875 171.734375 155.207031 172.292969 155.1875 C 172.851562 155.167969 173.433594 155.136719 174.035156 155.101562 C 174.425781 155.074219 174.898438 155.015625 175.457031 154.925781 C 176.007812 154.839844 176.367188 154.785156 176.53125 154.757812 L 176.476562 156.007812 C 175.953125 156.101562 175.609375 156.246094 175.4375 156.4375 C 175.269531 156.628906 175.1875 156.929688 175.199219 157.335938 L 175.441406 163.960938 C 175.527344 165.300781 175.882812 166.316406 176.511719 167 C 177.136719 167.6875 177.992188 167.996094 179.078125 167.925781 C 180.164062 167.855469 180.972656 167.511719 181.511719 166.882812 C 182.042969 166.261719 182.273438 165.386719 182.203125 164.257812 C 182.113281 163.070312 182.007812 161.71875 181.890625 160.207031 C 181.769531 158.699219 181.679688 157.632812 181.625 157.015625 C 181.5625 156.507812 181.476562 156.179688 181.371094 156.035156 C 181.261719 155.890625 181.058594 155.828125 180.757812 155.847656 C 180.59375 155.859375 180.417969 155.878906 180.238281 155.90625 C 180.058594 155.929688 179.9375 155.945312 179.878906 155.949219 L 179.824219 155.863281 L 179.929688 154.65625 C 180.113281 154.644531 180.460938 154.632812 180.976562 154.621094 C 181.488281 154.613281 182 154.589844 182.515625 154.558594 C 182.949219 154.53125 183.421875 154.472656 183.933594 154.386719 C 184.441406 154.300781 184.769531 154.246094 184.917969 154.222656 L 184.882812 155.449219 C 184.453125 155.550781 184.144531 155.648438 183.953125 155.746094 C 183.761719 155.839844 183.632812 155.964844 183.566406 156.109375 C 183.5 156.257812 183.476562 156.484375 183.496094 156.78125 L 183.964844 164.121094 C 184.070312 165.746094 183.65625 167.03125 182.726562 167.976562 C 181.796875 168.917969 180.417969 169.449219 178.59375 169.566406 Z M 188.507812 156.5 C 188.464844 156.023438 188.382812 155.703125 188.257812 155.546875 C 188.128906 155.390625 187.898438 155.328125 187.570312 155.355469 C 187.421875 155.367188 187.273438 155.390625 187.128906 155.417969 C 186.988281 155.445312 186.894531 155.460938 186.851562 155.460938 L 186.75 155.335938 L 186.832031 154.171875 C 187.042969 154.152344 187.425781 154.132812 187.984375 154.105469 C 188.542969 154.082031 189.070312 154.050781 189.566406 154.007812 C 189.972656 153.972656 190.476562 153.902344 191.078125 153.796875 C 191.671875 153.695312 192.066406 153.628906 192.261719 153.597656 L 192.277344 154.820312 C 191.726562 154.972656 191.359375 155.148438 191.171875 155.347656 C 190.984375 155.542969 190.902344 155.855469 190.921875 156.273438 L 191.46875 165.609375 C 191.503906 166.207031 191.59375 166.609375 191.738281 166.808594 C 191.886719 167.007812 192.148438 167.09375 192.519531 167.0625 C 192.761719 167.042969 192.96875 167.015625 193.140625 166.988281 C 193.3125 166.957031 193.429688 166.929688 193.488281 166.910156 L 193.566406 167.019531 L 193.464844 168.25 C 193.238281 168.269531 192.832031 168.292969 192.246094 168.320312 C 191.65625 168.347656 191.066406 168.386719 190.480469 168.4375 C 189.847656 168.492188 189.261719 168.546875 188.722656 168.609375 C 188.179688 168.671875 187.820312 168.707031 187.636719 168.726562 L 187.761719 167.511719 C 188.226562 167.410156 188.566406 167.300781 188.785156 167.175781 C 188.996094 167.050781 189.140625 166.867188 189.210938 166.628906 C 189.28125 166.386719 189.296875 166.046875 189.261719 165.613281 Z M 191.671875 160.777344 L 195.054688 156.515625 C 195.457031 156.039062 195.640625 155.636719 195.613281 155.308594 C 195.597656 155.113281 195.480469 154.96875 195.257812 154.871094 C 195.035156 154.777344 194.691406 154.734375 194.226562 154.746094 L 194.148438 154.636719 L 194.230469 153.472656 C 194.425781 153.472656 194.828125 153.464844 195.433594 153.449219 C 196.035156 153.4375 196.519531 153.417969 196.882812 153.386719 C 197.363281 153.34375 197.828125 153.292969 198.269531 153.230469 C 198.710938 153.171875 199.011719 153.128906 199.179688 153.097656 L 199.304688 153.269531 L 199.238281 154.363281 C 198.828125 154.535156 198.453125 154.78125 198.109375 155.105469 C 197.765625 155.429688 197.285156 155.992188 196.667969 156.785156 L 193.882812 160.359375 L 197.742188 164.824219 C 198.316406 165.484375 198.8125 165.941406 199.234375 166.195312 C 199.660156 166.445312 200.125 166.558594 200.636719 166.53125 L 200.785156 166.65625 L 200.707031 167.636719 C 200.519531 167.683594 200.140625 167.761719 199.570312 167.878906 C 199.007812 167.996094 198.65625 168.0625 198.519531 168.074219 C 197.695312 168.144531 196.804688 167.574219 195.851562 166.367188 L 191.660156 161.183594 Z M 202.425781 167.613281 L 202.429688 166.359375 C 203.007812 166.210938 203.390625 165.988281 203.582031 165.695312 C 203.769531 165.402344 203.832031 164.933594 203.761719 164.289062 L 202.820312 155.21875 C 202.769531 154.738281 202.683594 154.421875 202.5625 154.269531 C 202.4375 154.113281 202.214844 154.054688 201.886719 154.085938 C 201.734375 154.101562 201.585938 154.125 201.445312 154.15625 C 201.304688 154.1875 201.210938 154.203125 201.167969 154.207031 L 201.0625 154.082031 L 201.105469 152.941406 L 201.738281 152.898438 L 203.855469 152.703125 C 204.261719 152.660156 204.789062 152.578125 205.4375 152.457031 C 206.085938 152.335938 206.515625 152.257812 206.722656 152.222656 L 206.742188 153.492188 C 206.238281 153.605469 205.890625 153.734375 205.699219 153.875 C 205.511719 154.015625 205.394531 154.195312 205.359375 154.410156 C 205.320312 154.625 205.3125 155.003906 205.339844 155.550781 C 205.433594 158.226562 205.640625 161.070312 205.953125 164.085938 C 206.003906 164.5625 206.078125 164.902344 206.183594 165.105469 C 206.289062 165.308594 206.460938 165.433594 206.703125 165.484375 C 206.941406 165.535156 207.316406 165.535156 207.828125 165.480469 C 208.65625 165.394531 209.261719 165.253906 209.652344 165.050781 C 210.039062 164.851562 210.3125 164.519531 210.46875 164.050781 C 210.625 163.578125 210.726562 162.839844 210.773438 161.832031 L 212.132812 161.554688 L 212.265625 161.699219 C 212.246094 161.960938 212.210938 162.550781 212.164062 163.472656 C 212.113281 164.394531 212.097656 165.371094 212.113281 166.402344 L 211.972656 166.597656 C 211.550781 166.613281 210.660156 166.660156 209.292969 166.75 C 207.925781 166.839844 206.757812 166.933594 205.78125 167.035156 C 205.015625 167.113281 204.308594 167.21875 203.660156 167.347656 C 203.015625 167.476562 202.601562 167.5625 202.425781 167.613281 Z M 220.851562 165.507812 L 220.742188 165.363281 L 220.695312 164.253906 C 221.453125 164.097656 221.949219 163.953125 222.183594 163.816406 C 222.417969 163.683594 222.515625 163.472656 222.480469 163.1875 C 222.445312 162.917969 222.355469 162.609375 222.203125 162.265625 L 221.316406 160.230469 C 220.9375 160.261719 220.203125 160.347656 219.109375 160.480469 C 218.375 160.570312 217.609375 160.71875 216.816406 160.925781 L 216.351562 163.082031 C 216.277344 163.484375 216.25 163.753906 216.269531 163.886719 C 216.304688 164.1875 216.425781 164.390625 216.625 164.492188 C 216.832031 164.597656 217.152344 164.625 217.585938 164.570312 L 218.734375 164.429688 L 218.816406 164.53125 L 218.820312 165.691406 C 218.625 165.703125 218.195312 165.726562 217.527344 165.769531 C 216.863281 165.816406 216.226562 165.875 215.613281 165.953125 C 215.027344 166.027344 214.492188 166.097656 214.007812 166.175781 C 213.523438 166.25 213.199219 166.304688 213.035156 166.339844 L 213.0625 165.085938 C 213.445312 164.976562 213.742188 164.789062 213.949219 164.527344 C 214.160156 164.265625 214.335938 163.839844 214.476562 163.246094 L 217.285156 151.292969 L 219.574219 150.621094 L 219.808594 150.660156 C 219.957031 151.023438 220.296875 151.847656 220.824219 153.132812 C 221.347656 154.421875 221.972656 155.914062 222.703125 157.609375 C 223.429688 159.304688 224.09375 160.792969 224.695312 162.070312 C 224.929688 162.601562 225.195312 162.960938 225.5 163.140625 C 225.804688 163.328125 226.261719 163.410156 226.867188 163.398438 L 226.949219 163.5 L 226.929688 164.621094 C 226.746094 164.625 226.402344 164.652344 225.898438 164.699219 C 225.394531 164.75 224.886719 164.804688 224.378906 164.867188 C 223.613281 164.960938 222.882812 165.078125 222.1875 165.214844 C 221.488281 165.359375 221.042969 165.457031 220.851562 165.507812 Z M 217.101562 159.410156 L 218.902344 159.1875 C 219.503906 159.109375 220.128906 159.003906 220.78125 158.863281 L 218.546875 153.574219 L 218.324219 153.601562 Z M 217.101562 159.410156 "/>
</g>
<g clip-path="url(#clip2)" clip-rule="nonzero">
<path style=" stroke:none;fill-rule:nonzero;fill:rgb(45.882353%,35.686275%,70.588235%);fill-opacity:1;" d="M 100.769531 178.457031 L 100.621094 178.667969 C 100.582031 178.726562 100.539062 178.757812 100.484375 178.757812 C 100.441406 178.757812 100.390625 178.726562 100.332031 178.660156 C 100.269531 178.589844 100.1875 178.515625 100.082031 178.4375 C 99.980469 178.359375 99.84375 178.285156 99.679688 178.21875 C 99.515625 178.152344 99.308594 178.117188 99.0625 178.117188 C 98.792969 178.117188 98.554688 178.160156 98.34375 178.246094 C 98.132812 178.332031 97.953125 178.453125 97.808594 178.601562 C 97.660156 178.753906 97.546875 178.925781 97.46875 179.125 C 97.390625 179.324219 97.355469 179.539062 97.355469 179.765625 C 97.355469 179.980469 97.398438 180.164062 97.488281 180.308594 C 97.574219 180.453125 97.691406 180.578125 97.832031 180.683594 C 97.976562 180.789062 98.140625 180.878906 98.320312 180.957031 C 98.503906 181.03125 98.691406 181.105469 98.882812 181.179688 C 99.074219 181.25 99.261719 181.328125 99.445312 181.414062 C 99.628906 181.5 99.789062 181.605469 99.933594 181.730469 C 100.078125 181.855469 100.195312 182.003906 100.28125 182.179688 C 100.371094 182.355469 100.414062 182.574219 100.414062 182.832031 C 100.414062 183.171875 100.355469 183.496094 100.238281 183.800781 C 100.125 184.105469 99.957031 184.371094 99.738281 184.601562 C 99.519531 184.828125 99.257812 185.007812 98.945312 185.144531 C 98.632812 185.277344 98.285156 185.34375 97.902344 185.34375 C 97.449219 185.34375 97.066406 185.257812 96.753906 185.082031 C 96.441406 184.90625 96.183594 184.667969 95.96875 184.363281 L 96.144531 184.136719 C 96.195312 184.085938 96.242188 184.0625 96.292969 184.0625 C 96.324219 184.0625 96.359375 184.082031 96.402344 184.125 C 96.441406 184.167969 96.492188 184.21875 96.550781 184.28125 C 96.609375 184.34375 96.679688 184.414062 96.757812 184.484375 C 96.835938 184.554688 96.933594 184.625 97.046875 184.683594 C 97.160156 184.746094 97.289062 184.800781 97.441406 184.839844 C 97.589844 184.882812 97.765625 184.902344 97.964844 184.902344 C 98.261719 184.902344 98.53125 184.855469 98.769531 184.753906 C 99.011719 184.652344 99.214844 184.515625 99.382812 184.339844 C 99.554688 184.160156 99.6875 183.953125 99.773438 183.714844 C 99.867188 183.476562 99.910156 183.21875 99.910156 182.945312 C 99.910156 182.722656 99.867188 182.542969 99.777344 182.398438 C 99.691406 182.25 99.574219 182.125 99.429688 182.023438 C 99.289062 181.917969 99.125 181.832031 98.941406 181.761719 C 98.761719 181.691406 98.574219 181.621094 98.382812 181.550781 C 98.191406 181.480469 98.003906 181.402344 97.820312 181.316406 C 97.636719 181.234375 97.472656 181.128906 97.332031 181.003906 C 97.1875 180.875 97.070312 180.722656 96.984375 180.542969 C 96.898438 180.359375 96.855469 180.136719 96.855469 179.871094 C 96.855469 179.585938 96.90625 179.308594 97.011719 179.042969 C 97.113281 178.78125 97.257812 178.546875 97.453125 178.34375 C 97.644531 178.140625 97.882812 177.976562 98.160156 177.855469 C 98.441406 177.738281 98.757812 177.679688 99.113281 177.679688 C 99.476562 177.679688 99.792969 177.746094 100.066406 177.875 C 100.335938 178.007812 100.570312 178.203125 100.769531 178.457031 Z M 103.167969 184.929688 C 103.476562 184.929688 103.753906 184.851562 104.007812 184.691406 C 104.261719 184.527344 104.476562 184.316406 104.65625 184.050781 C 104.839844 183.78125 104.976562 183.476562 105.074219 183.132812 C 105.171875 182.789062 105.21875 182.433594 105.21875 182.070312 C 105.21875 181.503906 105.09375 181.070312 104.84375 180.761719 C 104.59375 180.453125 104.242188 180.300781 103.796875 180.300781 C 103.59375 180.300781 103.402344 180.335938 103.222656 180.410156 C 103.039062 180.480469 102.875 180.582031 102.722656 180.714844 C 102.570312 180.84375 102.433594 181 102.308594 181.179688 C 102.1875 181.355469 102.085938 181.550781 102.003906 181.761719 C 101.917969 181.976562 101.855469 182.199219 101.8125 182.433594 C 101.769531 182.671875 101.746094 182.914062 101.746094 183.160156 C 101.746094 183.722656 101.871094 184.15625 102.121094 184.46875 C 102.367188 184.777344 102.71875 184.929688 103.167969 184.929688 Z M 103.125 185.328125 C 102.84375 185.328125 102.585938 185.28125 102.351562 185.179688 C 102.121094 185.082031 101.921875 184.9375 101.757812 184.75 C 101.59375 184.5625 101.46875 184.335938 101.375 184.070312 C 101.285156 183.804688 101.242188 183.5 101.242188 183.160156 C 101.242188 182.734375 101.304688 182.324219 101.433594 181.929688 C 101.558594 181.535156 101.738281 181.1875 101.972656 180.886719 C 102.203125 180.589844 102.476562 180.347656 102.796875 180.171875 C 103.113281 179.992188 103.464844 179.902344 103.847656 179.902344 C 104.128906 179.902344 104.386719 179.953125 104.617188 180.054688 C 104.847656 180.15625 105.046875 180.296875 105.210938 180.484375 C 105.375 180.667969 105.503906 180.894531 105.59375 181.164062 C 105.683594 181.433594 105.730469 181.730469 105.730469 182.0625 C 105.730469 182.492188 105.664062 182.902344 105.535156 183.292969 C 105.40625 183.6875 105.226562 184.035156 104.996094 184.335938 C 104.769531 184.636719 104.492188 184.878906 104.175781 185.058594 C 103.855469 185.238281 103.507812 185.328125 103.125 185.328125 Z M 109.199219 180.523438 L 107.730469 180.523438 L 107.167969 185.148438 L 106.945312 186.367188 C 106.929688 186.445312 106.898438 186.5 106.855469 186.535156 C 106.808594 186.566406 106.75 186.585938 106.683594 186.585938 L 106.5 186.585938 L 107.242188 180.527344 L 106.574219 180.484375 C 106.496094 180.476562 106.457031 180.4375 106.457031 180.367188 C 106.457031 180.367188 106.457031 180.355469 106.457031 180.335938 C 106.460938 180.316406 106.464844 180.253906 106.476562 180.152344 L 107.285156 180.152344 L 107.371094 179.484375 C 107.40625 179.183594 107.472656 178.917969 107.574219 178.691406 C 107.679688 178.464844 107.804688 178.273438 107.960938 178.121094 C 108.113281 177.972656 108.289062 177.855469 108.484375 177.78125 C 108.675781 177.703125 108.886719 177.667969 109.109375 177.667969 C 109.207031 177.667969 109.308594 177.675781 109.40625 177.695312 C 109.503906 177.714844 109.59375 177.742188 109.671875 177.777344 L 109.617188 178.03125 C 109.613281 178.070312 109.585938 178.089844 109.539062 178.089844 C 109.5 178.089844 109.445312 178.082031 109.375 178.070312 C 109.304688 178.054688 109.222656 178.050781 109.128906 178.050781 C 108.96875 178.050781 108.820312 178.074219 108.675781 178.128906 C 108.535156 178.183594 108.40625 178.265625 108.292969 178.378906 C 108.183594 178.496094 108.085938 178.644531 108.007812 178.828125 C 107.929688 179.011719 107.871094 179.234375 107.839844 179.5 L 107.753906 180.152344 L 109.25 180.152344 Z M 110.046875 184.375 C 110.046875 184.351562 110.046875 184.328125 110.050781 184.296875 C 110.050781 184.261719 110.054688 184.214844 110.058594 184.152344 C 110.066406 184.085938 110.074219 184.007812 110.085938 183.90625 C 110.097656 183.804688 110.113281 183.675781 110.132812 183.523438 L 110.492188 180.527344 L 109.796875 180.527344 C 109.726562 180.527344 109.691406 180.496094 109.691406 180.429688 L 109.71875 180.210938 L 110.550781 180.144531 L 110.898438 178.261719 C 110.90625 178.230469 110.921875 178.199219 110.949219 178.175781 C 110.972656 178.152344 111.003906 178.140625 111.039062 178.140625 L 111.28125 178.140625 L 111.035156 180.152344 L 112.5625 180.152344 L 112.519531 180.527344 L 110.992188 180.527344 L 110.625 183.503906 C 110.605469 183.652344 110.59375 183.769531 110.582031 183.859375 C 110.570312 183.953125 110.5625 184.027344 110.554688 184.085938 C 110.550781 184.144531 110.546875 184.1875 110.542969 184.214844 C 110.539062 184.242188 110.539062 184.265625 110.539062 184.277344 C 110.539062 184.507812 110.59375 184.675781 110.703125 184.777344 C 110.808594 184.878906 110.949219 184.929688 111.117188 184.929688 C 111.234375 184.929688 111.339844 184.914062 111.429688 184.875 C 111.519531 184.839844 111.597656 184.796875 111.664062 184.753906 C 111.730469 184.710938 111.789062 184.667969 111.828125 184.632812 C 111.871094 184.59375 111.902344 184.574219 111.925781 184.574219 C 111.945312 184.574219 111.960938 184.582031 111.972656 184.589844 C 111.984375 184.597656 111.992188 184.613281 112.003906 184.628906 L 112.097656 184.851562 C 111.957031 185 111.785156 185.117188 111.585938 185.207031 C 111.382812 185.300781 111.183594 185.34375 110.980469 185.34375 C 110.691406 185.34375 110.464844 185.265625 110.300781 185.105469 C 110.132812 184.945312 110.050781 184.703125 110.046875 184.375 Z M 114.035156 185.261719 L 113.066406 179.988281 L 113.421875 179.988281 C 113.507812 179.988281 113.5625 180.03125 113.582031 180.113281 L 114.292969 184.273438 C 114.304688 184.351562 114.3125 184.425781 114.3125 184.5 C 114.316406 184.570312 114.316406 184.640625 114.316406 184.714844 C 114.34375 184.640625 114.375 184.570312 114.402344 184.5 C 114.429688 184.425781 114.460938 184.351562 114.492188 184.273438 L 116.308594 180.078125 C 116.335938 180 116.386719 179.960938 116.464844 179.960938 L 116.65625 179.960938 C 116.734375 179.960938 116.777344 180 116.789062 180.078125 L 117.570312 184.273438 C 117.585938 184.355469 117.597656 184.433594 117.601562 184.507812 C 117.609375 184.582031 117.617188 184.65625 117.621094 184.730469 C 117.644531 184.65625 117.667969 184.582031 117.691406 184.507812 C 117.714844 184.433594 117.746094 184.355469 117.78125 184.273438 L 119.511719 180.113281 C 119.527344 180.074219 119.550781 180.046875 119.582031 180.023438 C 119.613281 180 119.648438 179.988281 119.683594 179.988281 L 120.035156 179.988281 L 117.773438 185.261719 L 117.414062 185.261719 C 117.363281 185.261719 117.328125 185.222656 117.316406 185.148438 L 116.503906 180.867188 C 116.484375 180.777344 116.476562 180.699219 116.476562 180.621094 C 116.449219 180.699219 116.417969 180.78125 116.382812 180.867188 L 114.515625 185.148438 C 114.484375 185.222656 114.441406 185.261719 114.386719 185.261719 Z M 124.523438 180.167969 L 123.902344 185.261719 L 123.65625 185.261719 C 123.589844 185.261719 123.542969 185.242188 123.515625 185.210938 C 123.492188 185.179688 123.476562 185.140625 123.476562 185.09375 L 123.652344 183.4375 C 123.519531 183.71875 123.371094 183.976562 123.210938 184.207031 C 123.046875 184.4375 122.878906 184.636719 122.695312 184.804688 C 122.511719 184.96875 122.320312 185.097656 122.117188 185.191406 C 121.917969 185.28125 121.710938 185.328125 121.492188 185.328125 C 121.269531 185.328125 121.078125 185.285156 120.910156 185.199219 C 120.742188 185.113281 120.605469 184.988281 120.492188 184.832031 C 120.382812 184.671875 120.296875 184.480469 120.242188 184.253906 C 120.183594 184.027344 120.15625 183.773438 120.15625 183.488281 C 120.15625 183.183594 120.195312 182.882812 120.273438 182.585938 C 120.351562 182.292969 120.460938 182.011719 120.605469 181.75 C 120.75 181.484375 120.917969 181.238281 121.117188 181.015625 C 121.316406 180.792969 121.535156 180.601562 121.773438 180.4375 C 122.011719 180.277344 122.265625 180.148438 122.539062 180.058594 C 122.8125 179.964844 123.089844 179.917969 123.382812 179.917969 C 123.59375 179.917969 123.792969 179.9375 123.976562 179.972656 C 124.160156 180.011719 124.34375 180.074219 124.523438 180.167969 Z M 121.660156 184.910156 C 121.859375 184.910156 122.058594 184.855469 122.253906 184.742188 C 122.453125 184.628906 122.636719 184.46875 122.816406 184.261719 C 122.992188 184.054688 123.160156 183.804688 123.316406 183.511719 C 123.472656 183.222656 123.613281 182.898438 123.738281 182.546875 L 124.003906 180.398438 C 123.792969 180.328125 123.566406 180.292969 123.324219 180.292969 C 123.085938 180.292969 122.855469 180.335938 122.632812 180.414062 C 122.410156 180.496094 122.203125 180.605469 122.007812 180.746094 C 121.808594 180.886719 121.628906 181.054688 121.464844 181.246094 C 121.300781 181.441406 121.15625 181.65625 121.035156 181.886719 C 120.917969 182.117188 120.824219 182.363281 120.757812 182.621094 C 120.695312 182.878906 120.660156 183.140625 120.660156 183.410156 C 120.660156 183.882812 120.742188 184.25 120.902344 184.515625 C 121.0625 184.777344 121.316406 184.910156 121.660156 184.910156 Z M 126.03125 185.261719 L 125.535156 185.261719 L 126.171875 179.972656 L 126.402344 179.972656 C 126.523438 179.972656 126.585938 180.035156 126.585938 180.164062 L 126.433594 181.730469 C 126.671875 181.15625 126.949219 180.710938 127.257812 180.398438 C 127.566406 180.085938 127.894531 179.929688 128.246094 179.929688 C 128.390625 179.929688 128.539062 179.960938 128.691406 180.019531 L 128.601562 180.492188 C 128.4375 180.429688 128.285156 180.398438 128.144531 180.398438 C 127.765625 180.398438 127.425781 180.585938 127.125 180.960938 C 126.820312 181.332031 126.5625 181.871094 126.347656 182.574219 Z M 132.835938 180.992188 C 132.835938 181.140625 132.816406 181.277344 132.773438 181.40625 C 132.738281 181.539062 132.667969 181.660156 132.570312 181.777344 C 132.46875 181.894531 132.335938 182.007812 132.167969 182.109375 C 131.996094 182.214844 131.777344 182.308594 131.511719 182.398438 C 131.25 182.484375 130.933594 182.5625 130.5625 182.628906 C 130.195312 182.699219 129.765625 182.757812 129.269531 182.8125 C 129.261719 182.886719 129.257812 182.960938 129.253906 183.03125 C 129.25 183.105469 129.25 183.175781 129.25 183.246094 C 129.25 183.773438 129.367188 184.183594 129.605469 184.480469 C 129.84375 184.777344 130.203125 184.925781 130.683594 184.925781 C 130.875 184.925781 131.042969 184.90625 131.191406 184.867188 C 131.34375 184.824219 131.476562 184.773438 131.59375 184.707031 C 131.714844 184.644531 131.820312 184.578125 131.910156 184.507812 C 132 184.4375 132.078125 184.371094 132.148438 184.304688 C 132.21875 184.242188 132.28125 184.191406 132.335938 184.148438 C 132.386719 184.109375 132.429688 184.085938 132.472656 184.085938 C 132.515625 184.085938 132.554688 184.105469 132.585938 184.140625 L 132.699219 184.277344 C 132.527344 184.460938 132.359375 184.621094 132.195312 184.753906 C 132.03125 184.886719 131.863281 184.996094 131.699219 185.078125 C 131.527344 185.164062 131.355469 185.226562 131.171875 185.269531 C 130.992188 185.308594 130.800781 185.328125 130.597656 185.328125 C 130.300781 185.328125 130.039062 185.28125 129.8125 185.183594 C 129.585938 185.085938 129.394531 184.949219 129.238281 184.769531 C 129.082031 184.589844 128.964844 184.375 128.882812 184.117188 C 128.800781 183.863281 128.761719 183.574219 128.761719 183.257812 C 128.761719 182.992188 128.785156 182.722656 128.839844 182.457031 C 128.894531 182.1875 128.972656 181.929688 129.078125 181.683594 C 129.179688 181.433594 129.308594 181.203125 129.464844 180.988281 C 129.617188 180.773438 129.792969 180.585938 129.992188 180.429688 C 130.1875 180.269531 130.410156 180.140625 130.648438 180.050781 C 130.890625 179.957031 131.148438 179.914062 131.429688 179.914062 C 131.6875 179.914062 131.90625 179.949219 132.082031 180.023438 C 132.261719 180.09375 132.40625 180.183594 132.519531 180.292969 C 132.628906 180.398438 132.710938 180.515625 132.761719 180.640625 C 132.808594 180.769531 132.835938 180.886719 132.835938 180.992188 Z M 131.402344 180.285156 C 131.121094 180.285156 130.863281 180.34375 130.636719 180.464844 C 130.40625 180.582031 130.207031 180.746094 130.03125 180.945312 C 129.855469 181.144531 129.710938 181.375 129.589844 181.636719 C 129.472656 181.902344 129.382812 182.175781 129.328125 182.460938 C 129.777344 182.414062 130.164062 182.355469 130.488281 182.289062 C 130.816406 182.222656 131.089844 182.15625 131.316406 182.082031 C 131.542969 182.011719 131.726562 181.933594 131.867188 181.847656 C 132.003906 181.761719 132.113281 181.675781 132.191406 181.585938 C 132.269531 181.496094 132.320312 181.402344 132.347656 181.308594 C 132.375 181.210938 132.390625 181.113281 132.390625 181.011719 C 132.390625 180.9375 132.371094 180.855469 132.339844 180.769531 C 132.304688 180.683594 132.25 180.605469 132.171875 180.535156 C 132.09375 180.464844 131.992188 180.402344 131.867188 180.355469 C 131.742188 180.308594 131.585938 180.285156 131.402344 180.285156 Z M 139.628906 180.992188 C 139.628906 181.140625 139.609375 181.277344 139.570312 181.40625 C 139.53125 181.539062 139.464844 181.660156 139.363281 181.777344 C 139.265625 181.894531 139.128906 182.007812 138.960938 182.109375 C 138.792969 182.214844 138.574219 182.308594 138.308594 182.398438 C 138.042969 182.484375 137.726562 182.5625 137.359375 182.628906 C 136.992188 182.699219 136.558594 182.757812 136.0625 182.8125 C 136.058594 182.886719 136.050781 182.960938 136.046875 183.03125 C 136.042969 183.105469 136.042969 183.175781 136.042969 183.246094 C 136.042969 183.773438 136.164062 184.183594 136.402344 184.480469 C 136.640625 184.777344 137 184.925781 137.480469 184.925781 C 137.667969 184.925781 137.835938 184.90625 137.988281 184.867188 C 138.136719 184.824219 138.269531 184.773438 138.390625 184.707031 C 138.507812 184.644531 138.613281 184.578125 138.703125 184.507812 C 138.792969 184.4375 138.875 184.371094 138.945312 184.304688 C 139.015625 184.242188 139.074219 184.191406 139.128906 184.148438 C 139.179688 184.109375 139.226562 184.085938 139.269531 184.085938 C 139.3125 184.085938 139.347656 184.105469 139.378906 184.140625 L 139.496094 184.277344 C 139.324219 184.460938 139.15625 184.621094 138.992188 184.753906 C 138.824219 184.886719 138.660156 184.996094 138.492188 185.078125 C 138.324219 185.164062 138.148438 185.226562 137.96875 185.269531 C 137.789062 185.308594 137.597656 185.328125 137.390625 185.328125 C 137.097656 185.328125 136.835938 185.28125 136.609375 185.183594 C 136.378906 185.085938 136.1875 184.949219 136.03125 184.769531 C 135.875 184.589844 135.757812 184.375 135.675781 184.117188 C 135.59375 183.863281 135.554688 183.574219 135.554688 183.257812 C 135.554688 182.992188 135.582031 182.722656 135.632812 182.457031 C 135.6875 182.1875 135.765625 181.929688 135.871094 181.683594 C 135.972656 181.433594 136.101562 181.203125 136.257812 180.988281 C 136.410156 180.773438 136.585938 180.585938 136.785156 180.429688 C 136.984375 180.269531 137.203125 180.140625 137.445312 180.050781 C 137.683594 179.957031 137.945312 179.914062 138.222656 179.914062 C 138.480469 179.914062 138.699219 179.949219 138.878906 180.023438 C 139.054688 180.09375 139.203125 180.183594 139.3125 180.292969 C 139.425781 180.398438 139.503906 180.515625 139.554688 180.640625 C 139.605469 180.769531 139.628906 180.886719 139.628906 180.992188 Z M 138.195312 180.285156 C 137.914062 180.285156 137.660156 180.34375 137.429688 180.464844 C 137.203125 180.582031 137 180.746094 136.824219 180.945312 C 136.652344 181.144531 136.503906 181.375 136.386719 181.636719 C 136.265625 181.902344 136.179688 182.175781 136.121094 182.460938 C 136.570312 182.414062 136.960938 182.355469 137.285156 182.289062 C 137.609375 182.222656 137.886719 182.15625 138.113281 182.082031 C 138.339844 182.011719 138.523438 181.933594 138.660156 181.847656 C 138.800781 181.761719 138.910156 181.675781 138.984375 181.585938 C 139.0625 181.496094 139.117188 181.402344 139.144531 181.308594 C 139.171875 181.210938 139.183594 181.113281 139.183594 181.011719 C 139.183594 180.9375 139.167969 180.855469 139.132812 180.769531 C 139.097656 180.683594 139.042969 180.605469 138.964844 180.535156 C 138.886719 180.464844 138.785156 180.402344 138.660156 180.355469 C 138.535156 180.308594 138.378906 180.285156 138.195312 180.285156 Z M 140.929688 185.261719 L 140.429688 185.261719 L 141.066406 179.972656 L 141.296875 179.972656 C 141.414062 179.972656 141.476562 180.035156 141.476562 180.164062 L 141.320312 181.6875 C 141.464844 181.410156 141.625 181.160156 141.800781 180.9375 C 141.976562 180.71875 142.160156 180.53125 142.355469 180.378906 C 142.550781 180.222656 142.75 180.105469 142.953125 180.027344 C 143.160156 179.949219 143.367188 179.910156 143.574219 179.910156 C 143.96875 179.910156 144.261719 180.039062 144.460938 180.292969 C 144.660156 180.554688 144.757812 180.921875 144.757812 181.402344 C 144.757812 181.433594 144.757812 181.46875 144.757812 181.511719 C 144.753906 181.550781 144.75 181.617188 144.738281 181.703125 C 144.730469 181.792969 144.71875 181.917969 144.699219 182.078125 C 144.683594 182.238281 144.65625 182.457031 144.625 182.730469 C 144.59375 183.003906 144.554688 183.347656 144.503906 183.757812 C 144.457031 184.167969 144.398438 184.671875 144.328125 185.261719 L 143.832031 185.261719 L 144.226562 181.890625 C 144.25 181.726562 144.257812 181.574219 144.257812 181.429688 C 144.257812 181.074219 144.191406 180.800781 144.054688 180.613281 C 143.917969 180.425781 143.703125 180.332031 143.410156 180.332031 C 143.210938 180.332031 143.011719 180.382812 142.8125 180.484375 C 142.609375 180.582031 142.414062 180.726562 142.222656 180.914062 C 142.035156 181.097656 141.859375 181.320312 141.691406 181.585938 C 141.527344 181.847656 141.378906 182.144531 141.253906 182.472656 Z M 149.40625 181.359375 C 149.402344 181.554688 149.375 181.730469 149.328125 181.890625 C 149.28125 182.046875 149.222656 182.195312 149.152344 182.328125 C 149.078125 182.460938 149.003906 182.582031 148.917969 182.699219 C 148.835938 182.8125 148.757812 182.925781 148.6875 183.035156 C 148.617188 183.144531 148.558594 183.253906 148.515625 183.367188 C 148.46875 183.480469 148.445312 183.601562 148.445312 183.726562 C 148.445312 183.832031 148.464844 183.933594 148.507812 184.023438 C 148.550781 184.113281 148.601562 184.199219 148.664062 184.285156 C 148.726562 184.371094 148.792969 184.457031 148.867188 184.542969 C 148.941406 184.628906 149.011719 184.71875 149.074219 184.816406 C 149.136719 184.910156 149.1875 185.011719 149.230469 185.125 C 149.269531 185.242188 149.292969 185.367188 149.292969 185.503906 C 149.292969 185.726562 149.234375 185.941406 149.121094 186.148438 C 149.007812 186.355469 148.851562 186.535156 148.644531 186.695312 C 148.441406 186.855469 148.195312 186.980469 147.90625 187.078125 C 147.617188 187.171875 147.296875 187.21875 146.945312 187.21875 C 146.664062 187.21875 146.40625 187.191406 146.175781 187.136719 C 145.945312 187.078125 145.746094 186.996094 145.578125 186.890625 C 145.410156 186.78125 145.277344 186.652344 145.1875 186.496094 C 145.09375 186.339844 145.046875 186.164062 145.046875 185.964844 C 145.046875 185.710938 145.113281 185.484375 145.25 185.289062 C 145.382812 185.09375 145.5625 184.929688 145.789062 184.792969 C 146.015625 184.660156 146.28125 184.558594 146.585938 184.484375 C 146.886719 184.414062 147.210938 184.378906 147.558594 184.378906 C 147.679688 184.378906 147.800781 184.382812 147.917969 184.394531 C 148.039062 184.402344 148.160156 184.414062 148.285156 184.433594 C 148.226562 184.351562 148.175781 184.265625 148.132812 184.171875 C 148.09375 184.082031 148.074219 183.976562 148.074219 183.867188 C 148.074219 183.742188 148.09375 183.617188 148.136719 183.488281 C 148.179688 183.363281 148.261719 183.210938 148.378906 183.027344 C 148.234375 183.128906 148.082031 183.203125 147.921875 183.257812 C 147.761719 183.308594 147.585938 183.335938 147.394531 183.335938 C 147.191406 183.335938 147.003906 183.304688 146.832031 183.238281 C 146.660156 183.175781 146.507812 183.082031 146.382812 182.957031 C 146.257812 182.832031 146.160156 182.679688 146.089844 182.496094 C 146.019531 182.3125 145.980469 182.101562 145.980469 181.863281 C 145.980469 181.621094 146.027344 181.378906 146.113281 181.144531 C 146.199219 180.910156 146.324219 180.699219 146.488281 180.515625 C 146.652344 180.332031 146.855469 180.1875 147.097656 180.074219 C 147.335938 179.964844 147.613281 179.910156 147.917969 179.910156 C 148.097656 179.910156 148.269531 179.929688 148.429688 179.972656 C 148.585938 180.019531 148.730469 180.085938 148.851562 180.171875 L 150.234375 180.171875 L 150.210938 180.34375 C 150.207031 180.378906 150.195312 180.410156 150.171875 180.4375 C 150.148438 180.460938 150.113281 180.476562 150.0625 180.484375 L 149.203125 180.554688 C 149.265625 180.664062 149.316406 180.785156 149.351562 180.917969 C 149.386719 181.054688 149.40625 181.199219 149.40625 181.359375 Z M 148.832031 185.535156 C 148.832031 185.363281 148.804688 185.214844 148.746094 185.089844 C 148.691406 184.964844 148.621094 184.851562 148.539062 184.75 L 148.546875 184.765625 C 148.371094 184.738281 148.207031 184.71875 148.050781 184.707031 C 147.894531 184.699219 147.746094 184.691406 147.601562 184.691406 C 147.25 184.691406 146.945312 184.726562 146.6875 184.792969 C 146.429688 184.855469 146.214844 184.945312 146.042969 185.054688 C 145.871094 185.167969 145.742188 185.296875 145.65625 185.445312 C 145.570312 185.59375 145.527344 185.75 145.527344 185.914062 C 145.527344 186.0625 145.5625 186.199219 145.628906 186.316406 C 145.699219 186.4375 145.796875 186.535156 145.925781 186.613281 C 146.050781 186.691406 146.207031 186.753906 146.386719 186.796875 C 146.566406 186.839844 146.765625 186.859375 146.984375 186.859375 C 147.261719 186.859375 147.511719 186.824219 147.738281 186.75 C 147.964844 186.675781 148.160156 186.574219 148.320312 186.453125 C 148.480469 186.328125 148.605469 186.1875 148.695312 186.027344 C 148.78125 185.871094 148.828125 185.703125 148.832031 185.535156 Z M 147.511719 183.007812 C 147.738281 183.007812 147.941406 182.960938 148.121094 182.863281 C 148.296875 182.769531 148.449219 182.644531 148.570312 182.492188 C 148.695312 182.339844 148.789062 182.164062 148.851562 181.964844 C 148.917969 181.769531 148.949219 181.574219 148.949219 181.378906 C 148.949219 181.007812 148.851562 180.730469 148.65625 180.546875 C 148.460938 180.363281 148.199219 180.269531 147.871094 180.269531 C 147.644531 180.269531 147.441406 180.3125 147.265625 180.40625 C 147.089844 180.492188 146.941406 180.613281 146.820312 180.761719 C 146.695312 180.910156 146.605469 181.078125 146.539062 181.273438 C 146.476562 181.464844 146.445312 181.660156 146.445312 181.863281 C 146.445312 182.238281 146.539062 182.523438 146.730469 182.714844 C 146.921875 182.910156 147.183594 183.007812 147.511719 183.007812 Z M 151.316406 179.988281 L 151.808594 179.988281 L 151.167969 185.261719 L 150.671875 185.261719 Z M 152.195312 178.171875 C 152.195312 178.234375 152.183594 178.292969 152.15625 178.347656 C 152.132812 178.402344 152.101562 178.449219 152.058594 178.492188 C 152.015625 178.535156 151.964844 178.570312 151.910156 178.59375 C 151.855469 178.617188 151.800781 178.628906 151.742188 178.628906 C 151.683594 178.628906 151.628906 178.617188 151.574219 178.59375 C 151.519531 178.570312 151.476562 178.535156 151.433594 178.492188 C 151.394531 178.449219 151.359375 178.402344 151.335938 178.347656 C 151.3125 178.292969 151.296875 178.234375 151.296875 178.171875 C 151.296875 178.105469 151.3125 178.046875 151.335938 177.992188 C 151.359375 177.933594 151.394531 177.882812 151.433594 177.839844 C 151.476562 177.796875 151.519531 177.761719 151.574219 177.734375 C 151.628906 177.710938 151.683594 177.699219 151.742188 177.699219 C 151.800781 177.699219 151.855469 177.710938 151.910156 177.734375 C 151.964844 177.761719 152.015625 177.792969 152.058594 177.839844 C 152.101562 177.878906 152.132812 177.929688 152.15625 177.988281 C 152.183594 178.046875 152.195312 178.105469 152.195312 178.171875 Z M 153.445312 185.261719 L 152.945312 185.261719 L 153.582031 179.972656 L 153.8125 179.972656 C 153.933594 179.972656 153.992188 180.035156 153.992188 180.164062 L 153.835938 181.6875 C 153.984375 181.410156 154.144531 181.160156 154.320312 180.9375 C 154.492188 180.71875 154.679688 180.53125 154.875 180.378906 C 155.066406 180.222656 155.265625 180.105469 155.472656 180.027344 C 155.675781 179.949219 155.882812 179.910156 156.09375 179.910156 C 156.484375 179.910156 156.78125 180.039062 156.976562 180.292969 C 157.175781 180.554688 157.277344 180.921875 157.277344 181.402344 C 157.277344 181.433594 157.273438 181.46875 157.273438 181.511719 C 157.273438 181.550781 157.265625 181.617188 157.257812 181.703125 C 157.25 181.792969 157.234375 181.917969 157.21875 182.078125 C 157.199219 182.238281 157.175781 182.457031 157.144531 182.730469 C 157.113281 183.003906 157.070312 183.347656 157.023438 183.757812 C 156.976562 184.167969 156.917969 184.671875 156.847656 185.261719 L 156.347656 185.261719 L 156.746094 181.890625 C 156.765625 181.726562 156.777344 181.574219 156.777344 181.429688 C 156.777344 181.074219 156.707031 180.800781 156.574219 180.613281 C 156.4375 180.425781 156.222656 180.332031 155.929688 180.332031 C 155.730469 180.332031 155.53125 180.382812 155.328125 180.484375 C 155.128906 180.582031 154.933594 180.726562 154.742188 180.914062 C 154.554688 181.097656 154.375 181.320312 154.210938 181.585938 C 154.042969 181.847656 153.898438 182.144531 153.769531 182.472656 Z M 162.324219 180.992188 C 162.324219 181.140625 162.304688 181.277344 162.269531 181.40625 C 162.230469 181.539062 162.160156 181.660156 162.058594 181.777344 C 161.960938 181.894531 161.828125 182.007812 161.65625 182.109375 C 161.488281 182.214844 161.269531 182.308594 161.003906 182.398438 C 160.738281 182.484375 160.421875 182.5625 160.054688 182.628906 C 159.6875 182.699219 159.257812 182.757812 158.761719 182.8125 C 158.753906 182.886719 158.75 182.960938 158.746094 183.03125 C 158.742188 183.105469 158.738281 183.175781 158.738281 183.246094 C 158.738281 183.773438 158.859375 184.183594 159.097656 184.480469 C 159.335938 184.777344 159.699219 184.925781 160.179688 184.925781 C 160.363281 184.925781 160.535156 184.90625 160.683594 184.867188 C 160.835938 184.824219 160.96875 184.773438 161.085938 184.707031 C 161.207031 184.644531 161.308594 184.578125 161.402344 184.507812 C 161.492188 184.4375 161.570312 184.371094 161.640625 184.304688 C 161.714844 184.242188 161.773438 184.191406 161.824219 184.148438 C 161.875 184.109375 161.921875 184.085938 161.964844 184.085938 C 162.007812 184.085938 162.042969 184.105469 162.078125 184.140625 L 162.195312 184.277344 C 162.019531 184.460938 161.851562 184.621094 161.6875 184.753906 C 161.523438 184.886719 161.355469 184.996094 161.1875 185.078125 C 161.019531 185.164062 160.847656 185.226562 160.667969 185.269531 C 160.484375 185.308594 160.292969 185.328125 160.085938 185.328125 C 159.792969 185.328125 159.53125 185.28125 159.304688 185.183594 C 159.078125 185.085938 158.882812 184.949219 158.730469 184.769531 C 158.574219 184.589844 158.457031 184.375 158.375 184.117188 C 158.292969 183.863281 158.25 183.574219 158.25 183.257812 C 158.25 182.992188 158.277344 182.722656 158.332031 182.457031 C 158.382812 182.1875 158.464844 181.929688 158.566406 181.683594 C 158.671875 181.433594 158.800781 181.203125 158.953125 180.988281 C 159.109375 180.773438 159.285156 180.585938 159.480469 180.429688 C 159.679688 180.269531 159.898438 180.140625 160.140625 180.050781 C 160.378906 179.957031 160.640625 179.914062 160.921875 179.914062 C 161.179688 179.914062 161.394531 179.949219 161.574219 180.023438 C 161.753906 180.09375 161.898438 180.183594 162.007812 180.292969 C 162.121094 180.398438 162.203125 180.515625 162.25 180.640625 C 162.300781 180.769531 162.324219 180.886719 162.324219 180.992188 Z M 160.894531 180.285156 C 160.609375 180.285156 160.355469 180.34375 160.128906 180.464844 C 159.898438 180.582031 159.699219 180.746094 159.523438 180.945312 C 159.347656 181.144531 159.199219 181.375 159.082031 181.636719 C 158.964844 181.902344 158.875 182.175781 158.820312 182.460938 C 159.269531 182.414062 159.65625 182.355469 159.980469 182.289062 C 160.304688 182.222656 160.582031 182.15625 160.808594 182.082031 C 161.035156 182.011719 161.21875 181.933594 161.359375 181.847656 C 161.5 181.761719 161.605469 181.675781 161.683594 181.585938 C 161.761719 181.496094 161.8125 181.402344 161.839844 181.308594 C 161.867188 181.210938 161.878906 181.113281 161.878906 181.011719 C 161.878906 180.9375 161.863281 180.855469 161.828125 180.769531 C 161.796875 180.683594 161.742188 180.605469 161.664062 180.535156 C 161.585938 180.464844 161.484375 180.402344 161.359375 180.355469 C 161.230469 180.308594 161.078125 180.285156 160.894531 180.285156 Z M 167.074219 180.992188 C 167.074219 181.140625 167.054688 181.277344 167.015625 181.40625 C 166.976562 181.539062 166.90625 181.660156 166.808594 181.777344 C 166.707031 181.894531 166.574219 182.007812 166.402344 182.109375 C 166.234375 182.214844 166.015625 182.308594 165.753906 182.398438 C 165.488281 182.484375 165.167969 182.5625 164.800781 182.628906 C 164.433594 182.699219 164.003906 182.757812 163.507812 182.8125 C 163.5 182.886719 163.496094 182.960938 163.492188 183.03125 C 163.488281 183.105469 163.488281 183.175781 163.488281 183.246094 C 163.488281 183.773438 163.605469 184.183594 163.84375 184.480469 C 164.085938 184.777344 164.445312 184.925781 164.925781 184.925781 C 165.113281 184.925781 165.28125 184.90625 165.433594 184.867188 C 165.582031 184.824219 165.714844 184.773438 165.835938 184.707031 C 165.953125 184.644531 166.058594 184.578125 166.148438 184.507812 C 166.238281 184.4375 166.320312 184.371094 166.390625 184.304688 C 166.460938 184.242188 166.519531 184.191406 166.570312 184.148438 C 166.621094 184.109375 166.667969 184.085938 166.710938 184.085938 C 166.753906 184.085938 166.792969 184.105469 166.824219 184.140625 L 166.941406 184.277344 C 166.765625 184.460938 166.597656 184.621094 166.433594 184.753906 C 166.269531 184.886719 166.101562 184.996094 165.933594 185.078125 C 165.765625 185.164062 165.59375 185.226562 165.414062 185.269531 C 165.230469 185.308594 165.039062 185.328125 164.832031 185.328125 C 164.539062 185.328125 164.28125 185.28125 164.054688 185.183594 C 163.824219 185.085938 163.632812 184.949219 163.476562 184.769531 C 163.320312 184.589844 163.203125 184.375 163.121094 184.117188 C 163.039062 183.863281 163 183.574219 163 183.257812 C 163 182.992188 163.023438 182.722656 163.078125 182.457031 C 163.132812 182.1875 163.210938 181.929688 163.316406 181.683594 C 163.417969 181.433594 163.546875 181.203125 163.703125 180.988281 C 163.855469 180.773438 164.03125 180.585938 164.230469 180.429688 C 164.425781 180.269531 164.644531 180.140625 164.886719 180.050781 C 165.128906 179.957031 165.386719 179.914062 165.667969 179.914062 C 165.925781 179.914062 166.144531 179.949219 166.324219 180.023438 C 166.5 180.09375 166.648438 180.183594 166.757812 180.292969 C 166.867188 180.398438 166.949219 180.515625 167 180.640625 C 167.046875 180.769531 167.074219 180.886719 167.074219 180.992188 Z M 165.640625 180.285156 C 165.355469 180.285156 165.101562 180.34375 164.875 180.464844 C 164.644531 180.582031 164.445312 180.746094 164.269531 180.945312 C 164.09375 181.144531 163.949219 181.375 163.832031 181.636719 C 163.710938 181.902344 163.625 182.175781 163.566406 182.460938 C 164.015625 182.414062 164.402344 182.355469 164.726562 182.289062 C 165.054688 182.222656 165.328125 182.15625 165.554688 182.082031 C 165.78125 182.011719 165.964844 181.933594 166.105469 181.847656 C 166.246094 181.761719 166.355469 181.675781 166.433594 181.585938 C 166.507812 181.496094 166.5625 181.402344 166.589844 181.308594 C 166.613281 181.210938 166.625 181.113281 166.625 181.011719 C 166.625 180.9375 166.609375 180.855469 166.578125 180.769531 C 166.542969 180.683594 166.488281 180.605469 166.410156 180.535156 C 166.332031 180.464844 166.230469 180.402344 166.105469 180.355469 C 165.980469 180.308594 165.824219 180.285156 165.640625 180.285156 Z M 168.367188 185.261719 L 167.875 185.261719 L 168.511719 179.972656 L 168.738281 179.972656 C 168.863281 179.972656 168.925781 180.035156 168.925781 180.164062 L 168.769531 181.730469 C 169.011719 181.15625 169.285156 180.710938 169.59375 180.398438 C 169.90625 180.085938 170.234375 179.929688 170.585938 179.929688 C 170.730469 179.929688 170.878906 179.960938 171.03125 180.019531 L 170.941406 180.492188 C 170.777344 180.429688 170.625 180.398438 170.484375 180.398438 C 170.105469 180.398438 169.765625 180.585938 169.460938 180.960938 C 169.160156 181.332031 168.902344 181.871094 168.683594 182.574219 Z M 168.367188 185.261719 "/>
</g>
<g clip-path="url(#clip3)" clip-rule="nonzero">
<path style=" stroke:none;fill-rule:nonzero;fill:rgb(45.882353%,35.686275%,70.588235%);fill-opacity:1;" d="M 114.398438 149.378906 L 152.601562 149.378906 C 154.546875 149.378906 156.105469 147.824219 156.105469 145.878906 L 156.105469 116.277344 C 156.105469 114.335938 154.546875 112.78125 152.601562 112.78125 L 114.398438 112.78125 C 112.453125 112.78125 110.894531 114.335938 110.894531 116.277344 L 110.894531 145.878906 C 110.945312 147.824219 112.5 149.378906 114.398438 149.378906 Z M 152.648438 146.949219 L 114.398438 146.949219 C 113.816406 146.949219 113.328125 146.460938 113.328125 145.878906 L 113.328125 123.765625 L 153.671875 123.765625 L 153.671875 145.878906 C 153.671875 146.511719 153.234375 146.949219 152.648438 146.949219 Z M 114.398438 115.257812 L 152.601562 115.257812 C 153.183594 115.257812 153.671875 115.746094 153.671875 116.328125 L 153.671875 121.382812 L 113.378906 121.382812 L 113.378906 116.277344 C 113.378906 115.695312 113.816406 115.257812 114.398438 115.257812 Z M 119.851562 118.273438 C 119.851562 117.445312 120.53125 116.8125 121.308594 116.8125 C 122.089844 116.8125 122.769531 117.496094 122.769531 118.273438 C 122.769531 119.097656 122.089844 119.730469 121.308594 119.730469 C 120.53125 119.730469 119.851562 119.097656 119.851562 118.273438 Z M 124.714844 118.273438 C 124.714844 117.445312 125.398438 116.8125 126.175781 116.8125 C 126.953125 116.8125 127.636719 117.496094 127.636719 118.273438 C 127.636719 119.097656 126.953125 119.730469 126.175781 119.730469 C 125.398438 119.730469 124.714844 119.097656 124.714844 118.273438 Z M 114.984375 118.273438 C 114.984375 117.445312 115.664062 116.8125 116.441406 116.8125 C 117.269531 116.8125 117.902344 117.496094 117.902344 118.273438 C 117.902344 119.097656 117.222656 119.730469 116.441406 119.730469 C 115.664062 119.777344 114.984375 119.097656 114.984375 118.273438 Z M 150.75 143.109375 C 150.75 143.789062 150.214844 144.324219 149.535156 144.324219 L 117.515625 144.324219 C 116.832031 144.324219 116.296875 143.789062 116.296875 143.109375 C 116.296875 142.429688 116.832031 141.894531 117.515625 141.894531 L 149.535156 141.894531 C 150.214844 141.894531 150.75 142.476562 150.75 143.109375 Z M 150.75 138.003906 C 150.75 138.6875 150.214844 139.21875 149.535156 139.21875 L 125.933594 139.21875 C 125.25 139.21875 124.714844 138.6875 124.714844 138.003906 C 124.714844 137.324219 125.25 136.789062 125.933594 136.789062 L 149.535156 136.789062 C 150.214844 136.789062 150.75 137.324219 150.75 138.003906 Z M 150.75 132.902344 C 150.75 133.582031 150.214844 134.117188 149.535156 134.117188 L 117.515625 134.117188 C 116.832031 134.117188 116.296875 133.582031 116.296875 132.902344 C 116.296875 132.222656 116.832031 131.6875 117.515625 131.6875 L 149.535156 131.6875 C 150.214844 131.6875 150.75 132.222656 150.75 132.902344 Z M 150.75 127.75 C 150.75 128.429688 150.214844 128.964844 149.535156 128.964844 L 133.523438 128.964844 C 132.84375 128.964844 132.308594 128.429688 132.308594 127.75 C 132.308594 127.070312 132.84375 126.535156 133.523438 126.535156 L 149.535156 126.535156 C 150.214844 126.535156 150.75 127.070312 150.75 127.75 Z M 150.75 127.75 "/>
</g>
</g>
</svg>
