<svg xmlns="http://www.w3.org/2000/svg" version="1.1" xmlns:xlink="http://www.w3.org/1999/xlink" xmlns:svgjs="http://svgjs.dev/svgjs" width="1000" height="625" viewBox="0 0 1000 625"><g transform="matrix(1,0,0,1,0,0)"><svg viewBox="0 0 512 320" data-background-color="#ffffff" preserveAspectRatio="xMidYMid meet" height="625" width="1000" xmlns="http://www.w3.org/2000/svg" xmlns:xlink="http://www.w3.org/1999/xlink"><g id="tight-bounds" transform="matrix(1,0,0,1,0,0)"><svg viewBox="0 0 512 320" height="320" width="512"><g><svg></svg></g><g><svg viewBox="0 0 512 320" height="320" width="512"><g><path xmlns="http://www.w3.org/2000/svg" d="M96 160c0-88.366 71.634-160 160-160 88.366 0 160 71.634 160 160 0 88.366-71.634 160-160 160-88.366 0-160-71.634-160-160zM256 301.001c77.873 0 141.001-63.128 141.001-141.001 0-77.873-63.128-141.001-141.001-141.001-77.873 0-141.001 63.128-141.001 141.001 0 77.873 63.128 141.001 141.001 141.001z" fill="#755bb4" fill-rule="nonzero" stroke="none" stroke-width="1" stroke-linecap="butt" stroke-linejoin="miter" stroke-miterlimit="10" stroke-dasharray="" stroke-dashoffset="0" font-family="none" font-weight="none" font-size="none" text-anchor="none" style="mix-blend-mode: normal" data-fill-palette-color="tertiary"></path></g><g transform="matrix(1,0,0,1,166.97164002044263,80)"><svg viewBox="0 0 178.0567199591147 160" height="160" width="178.0567199591147"><g><svg viewBox="0 0 257.28 231.18925255644515" height="160" width="178.0567199591147"><g><svg viewBox="0 0 257.28 231.18925255644515" height="231.18925255644515" width="257.28"><g id="textblocktransform"><svg viewBox="0 0 257.28 231.18925255644515" height="231.18925255644515" width="257.28" id="textblock"><g><rect width="257.28" height="13.7259849861602" x="0" y="168.37414347151113" fill="#755bb4" opacity="1" stroke-width="0" stroke="transparent" fill-opacity="1" class="rect-o-0" data-fill-palette-color="primary" rx="1%" id="o-0" data-palette-color="#755bb4"></rect></g><g transform="matrix(1,0,0,1,0.6399999999999864,0)"><svg viewBox="0 0 256 152.20478943022295" height="152.20478943022295" width="256"><g transform="matrix(1,0,0,1,0,0)"><svg width="256" viewBox="1.7999999523162842 -35.5 60.54999923706055 36" height="152.20478943022295" data-palette-color="#755bb4"><path d="M16.05 0.5L16.05 0.5Q11.4 0.5 8.28-0.88 5.15-2.25 3.53-4.48 1.9-6.7 1.8-9.15L1.8-9.15Q1.8-9.6 2.1-9.9 2.4-10.2 2.85-10.2L2.85-10.2 7.3-10.2Q7.95-10.2 8.28-9.93 8.6-9.65 8.85-9.25L8.85-9.25Q9.15-8.3 10-7.38 10.85-6.45 12.33-5.85 13.8-5.25 16.05-5.25L16.05-5.25Q19.65-5.25 21.43-6.45 23.2-7.65 23.2-9.7L23.2-9.7Q23.2-11.15 22.25-12.03 21.3-12.9 19.33-13.63 17.35-14.35 14.1-15.15L14.1-15.15Q10.35-16.05 7.83-17.32 5.3-18.6 4.03-20.55 2.75-22.5 2.75-25.5L2.75-25.5Q2.75-28.4 4.33-30.65 5.9-32.9 8.83-34.2 11.75-35.5 15.8-35.5L15.8-35.5Q19.05-35.5 21.55-34.63 24.05-33.75 25.7-32.33 27.35-30.9 28.23-29.28 29.1-27.65 29.15-26.1L29.15-26.1Q29.15-25.7 28.88-25.38 28.6-25.05 28.1-25.05L28.1-25.05 23.45-25.05Q23.05-25.05 22.65-25.25 22.25-25.45 22-26L22-26Q21.7-27.55 20.05-28.65 18.4-29.75 15.8-29.75L15.8-29.75Q13.1-29.75 11.45-28.75 9.8-27.75 9.8-25.65L9.8-25.65Q9.8-24.25 10.63-23.33 11.45-22.4 13.28-21.7 15.1-21 18.1-20.2L18.1-20.2Q22.35-19.25 25.05-18 27.75-16.75 29-14.83 30.25-12.9 30.25-9.95L30.25-9.95Q30.25-6.65 28.48-4.33 26.7-2 23.5-0.75 20.3 0.5 16.05 0.5ZM48.15 0.5L48.15 0.5Q43.5 0.5 40.37-0.88 37.25-2.25 35.62-4.48 34-6.7 33.9-9.15L33.9-9.15Q33.9-9.6 34.2-9.9 34.5-10.2 34.95-10.2L34.95-10.2 39.4-10.2Q40.05-10.2 40.37-9.93 40.7-9.65 40.95-9.25L40.95-9.25Q41.25-8.3 42.1-7.38 42.95-6.45 44.42-5.85 45.9-5.25 48.15-5.25L48.15-5.25Q51.75-5.25 53.52-6.45 55.3-7.65 55.3-9.7L55.3-9.7Q55.3-11.15 54.35-12.03 53.4-12.9 51.42-13.63 49.45-14.35 46.2-15.15L46.2-15.15Q42.45-16.05 39.92-17.32 37.4-18.6 36.12-20.55 34.85-22.5 34.85-25.5L34.85-25.5Q34.85-28.4 36.42-30.65 38-32.9 40.92-34.2 43.85-35.5 47.9-35.5L47.9-35.5Q51.15-35.5 53.65-34.63 56.15-33.75 57.8-32.33 59.45-30.9 60.32-29.28 61.2-27.65 61.25-26.1L61.25-26.1Q61.25-25.7 60.97-25.38 60.7-25.05 60.2-25.05L60.2-25.05 55.55-25.05Q55.15-25.05 54.75-25.25 54.35-25.45 54.1-26L54.1-26Q53.8-27.55 52.15-28.65 50.5-29.75 47.9-29.75L47.9-29.75Q45.2-29.75 43.55-28.75 41.9-27.75 41.9-25.65L41.9-25.65Q41.9-24.25 42.72-23.33 43.55-22.4 45.37-21.7 47.2-21 50.2-20.2L50.2-20.2Q54.45-19.25 57.15-18 59.85-16.75 61.1-14.83 62.35-12.9 62.35-9.95L62.35-9.95Q62.35-6.65 60.57-4.33 58.8-2 55.6-0.75 52.4 0.5 48.15 0.5Z" opacity="1" transform="matrix(1,0,0,1,0,0)" fill="#755bb4" class="wordmark-text-0" data-fill-palette-color="primary" id="text-0"></path></svg></g></svg></g><g transform="matrix(1,0,0,1,0,198.26948249895952)"><svg viewBox="0 0 256 32.91977005748563" height="32.91977005748563" width="256"><g transform="matrix(1,0,0,1,0,0)"><svg width="256" viewBox="1.9500000476837158 -37.20000076293945 400.05999755859375 51.45000076293945" height="32.91977005748563" data-palette-color="#755bb4"><path d="M13.85 0.8Q9.65 0.8 6.38-1.48 3.1-3.75 1.95-7.45L1.95-7.45 3.85-8.2Q4.8-5.05 7.58-3.13 10.35-1.2 13.9-1.2L13.9-1.2Q16.55-1.2 18.7-2.33 20.85-3.45 22.08-5.43 23.3-7.4 23.3-9.85L23.3-9.85Q23.3-11.75 22.43-13.18 21.55-14.6 19.5-15.9 17.45-17.2 13.75-18.75L13.75-18.75Q10.5-20.1 8.72-21.3 6.95-22.5 6.18-23.85 5.4-25.2 5.4-27.05L5.4-27.05Q5.4-29.3 6.6-31.13 7.8-32.95 9.93-34 12.05-35.05 14.65-35.05L14.65-35.05Q18.05-35.05 20.2-33.45 22.35-31.85 22.35-29.25L22.35-29.25Q22.35-27.3 21.05-26.08 19.75-24.85 18.05-25.05L18.05-25.05 18.2-26.95Q19.1-26.85 19.68-27.48 20.25-28.1 20.25-29.15L20.25-29.15Q20.25-30.85 18.68-31.95 17.1-33.05 14.75-33.05L14.75-33.05Q12.85-33.05 11.18-32.23 9.5-31.4 8.5-30.05 7.5-28.7 7.5-27.15L7.5-27.15Q7.5-25.7 8.1-24.73 8.7-23.75 10.25-22.8 11.8-21.85 14.85-20.55L14.85-20.55Q18.9-18.85 21.18-17.3 23.45-15.75 24.45-14 25.45-12.25 25.45-9.9L25.45-9.9Q25.45-6.8 23.95-4.38 22.45-1.95 19.83-0.58 17.2 0.8 13.85 0.8L13.85 0.8ZM42.4 0.45Q38.85 0.45 36.12-1.15 33.4-2.75 31.87-5.65 30.35-8.55 30.35-12.3L30.35-12.3Q30.35-16.1 31.87-19.03 33.4-21.95 36.15-23.6 38.9-25.25 42.45-25.25L42.45-25.25Q46-25.25 48.75-23.63 51.5-22 53.02-19.07 54.55-16.15 54.55-12.35L54.55-12.35Q54.55-8.6 53.02-5.68 51.5-2.75 48.75-1.15 46 0.45 42.4 0.45L42.4 0.45ZM42.45-1.45Q45.4-1.45 47.67-2.85 49.95-4.25 51.2-6.78 52.45-9.3 52.45-12.55L52.45-12.55Q52.45-15.75 51.2-18.2 49.95-20.65 47.67-22 45.4-23.35 42.45-23.35L42.45-23.35Q39.5-23.35 37.22-21.98 34.95-20.6 33.7-18.1 32.45-15.6 32.45-12.35L32.45-12.35Q32.45-9.15 33.7-6.68 34.95-4.2 37.22-2.83 39.5-1.45 42.45-1.45L42.45-1.45ZM61.05-25.3Q61.05-31.55 62.89-34.38 64.75-37.2 68.84-37.2L68.84-37.2Q72.19-37.2 74-35.3 75.8-33.4 75.8-29.9L75.8-29.9Q75.8-25.65 73.17-23.35 70.55-21.05 65.94-21.2L65.94-21.2 63.14-21.3 63.14-12.2 70.69-12.2 70.69-10.3 63.14-10.3 63.14 13.2 61.05 13.2 61.05-25.3ZM65.94-23.1Q69.5-23.1 71.59-24.95 73.69-26.8 73.69-29.95L73.69-29.95Q73.69-32.4 72.34-33.85 71-35.3 68.75-35.3L68.75-35.3Q63.14-35.3 63.14-25.45L63.14-25.45 63.14-23.1 65.94-23.1ZM85.74 0.45Q79.44 0.45 79.44-7L79.44-7 79.44-31.15 81.54-31.15 81.54-25 89.59-25 89.59-23 81.54-23 81.54-7Q81.54-4.35 82.52-2.9 83.49-1.45 85.74-1.45L85.74-1.45Q88.69-1.45 90.44-4.3L90.44-4.3 91.94-3.2Q90.79-1.35 89.34-0.45 87.89 0.45 85.74 0.45L85.74 0.45ZM96.29-21.05Q96.09-21.8 95.44-22.58 94.79-23.35 93.99-23.9L93.99-23.9 95.04-25.55Q96.29-24.8 97.04-23.78 97.79-22.75 98.24-21.35L98.24-21.35 104.34-3 111.49-24.85 113.84-24.85 120.94-3 128.09-24.85 130.19-24.85 122.14-0.1 119.79-0.1 112.64-21.95 105.49-0.1 103.09-0.1 96.29-21.05ZM158.14-2.4L159.74-1.4Q159.24-0.55 158.36-0.1 157.49 0.35 156.54 0.35L156.54 0.35Q154.74 0.35 153.69-0.68 152.64-1.7 152.49-3.7L152.49-3.7Q151.44-1.8 149.29-0.68 147.14 0.45 144.44 0.45L144.44 0.45Q140.99 0.45 138.61-1.28 136.24-3 135.06-5.88 133.89-8.75 133.89-12.25L133.89-12.25Q133.89-16.15 135.34-19.07 136.79-22 139.51-23.63 142.24-25.25 145.99-25.25L145.99-25.25Q147.14-25.25 148.91-25.13 150.69-25 152.04-24.8L152.04-24.8 154.54-24.8 154.54-3.9Q154.54-2.7 155.09-2.13 155.64-1.55 156.54-1.55L156.54-1.55Q156.99-1.55 157.46-1.8 157.94-2.05 158.14-2.4L158.14-2.4ZM152.44-9.3L152.44-23Q151.64-22.95 148.84-23.15L148.84-23.15 145.79-23.25Q141.04-23.25 138.51-20.15 135.99-17.05 135.99-12.35L135.99-12.35Q135.99-9.55 136.96-7.08 137.94-4.6 139.86-3.08 141.79-1.55 144.49-1.55L144.49-1.55Q146.94-1.55 148.84-2.75 150.74-3.95 151.69-5.85L151.69-5.85Q152.44-7.35 152.44-9.3L152.44-9.3ZM174.04-25.25Q174.74-25.25 176.64-24.9L176.64-24.9 176.64-23Q175.19-23.25 174.14-23.25L174.14-23.25Q171.29-23.25 169.54-21.85L169.54-21.85Q168.79-21.2 167.94-20.18 167.09-19.15 166.49-18L166.49-18 166.49-0.05 164.39-0.05 164.39-18.1Q164.39-20.3 163.94-21.58 163.49-22.85 162.54-24.05L162.54-24.05 163.94-25.4Q165.04-24.35 165.71-23.03 166.39-21.7 166.49-20.25L166.49-20.25Q167.14-21.55 168.04-22.6 168.94-23.65 169.84-24.2L169.84-24.2Q171.54-25.25 174.04-25.25L174.04-25.25ZM190.18 0.45Q184.63 0.45 181.78-2.83 178.93-6.1 178.93-11.45L178.93-11.45Q178.93-14.9 180.13-18.05 181.33-21.2 183.83-23.23 186.33-25.25 189.98-25.25L189.98-25.25Q193.78-25.25 196.33-23.2 198.88-21.15 198.88-17.75L198.88-17.75Q198.88-14.15 195.91-12.2 192.93-10.25 187.83-10.25L187.83-10.25 181.18-10.25Q181.58-6.05 183.88-3.75 186.18-1.45 190.18-1.45L190.18-1.45Q192.43-1.45 194.31-2.1 196.18-2.75 198.18-4L198.18-4 199.23-2.55Q194.98 0.45 190.18 0.45L190.18 0.45ZM187.83-12.15Q191.83-12.15 194.31-13.5 196.78-14.85 196.78-17.8L196.78-17.8Q196.78-20.5 194.78-21.93 192.78-23.35 190.13-23.35L190.13-23.35Q187.08-23.35 185.01-21.53 182.93-19.7 181.96-17.07 180.98-14.45 181.08-12.15L181.08-12.15 187.83-12.15ZM228.93 0.45Q223.38 0.45 220.53-2.83 217.68-6.1 217.68-11.45L217.68-11.45Q217.68-14.9 218.88-18.05 220.08-21.2 222.58-23.23 225.08-25.25 228.73-25.25L228.73-25.25Q232.53-25.25 235.08-23.2 237.63-21.15 237.63-17.75L237.63-17.75Q237.63-14.15 234.65-12.2 231.68-10.25 226.58-10.25L226.58-10.25 219.93-10.25Q220.33-6.05 222.63-3.75 224.93-1.45 228.93-1.45L228.93-1.45Q231.18-1.45 233.05-2.1 234.93-2.75 236.93-4L236.93-4 237.98-2.55Q233.73 0.45 228.93 0.45L228.93 0.45ZM226.58-12.15Q230.58-12.15 233.05-13.5 235.53-14.85 235.53-17.8L235.53-17.8Q235.53-20.5 233.53-21.93 231.53-23.35 228.88-23.35L228.88-23.35Q225.83-23.35 223.75-21.53 221.68-19.7 220.7-17.07 219.73-14.45 219.83-12.15L219.83-12.15 226.58-12.15ZM266.98-2.2L268.53-1.1Q267.38 0.5 265.43 0.5L265.43 0.5Q263.63 0.5 262.5-0.68 261.38-1.85 261.38-3.85L261.38-3.85 261.38-16.85Q261.38-23.35 255.38-23.35L255.38-23.35Q252.88-23.35 250.8-22.08 248.73-20.8 246.58-17.9L246.58-17.9 246.58 0 244.48 0 244.48-18Q244.48-20.2 244.03-21.48 243.58-22.75 242.63-23.95L242.63-23.95 244.03-25.3Q245.13-24.25 245.8-22.88 246.48-21.5 246.58-20.05L246.58-20.05Q248.28-22.8 250.45-24.03 252.63-25.25 255.63-25.25L255.63-25.25Q259.38-25.25 261.43-23.35 263.48-21.45 263.48-17.9L263.48-17.9 263.48-3.8Q263.48-2.6 264.03-2 264.58-1.4 265.48-1.4L265.48-1.4Q266.33-1.4 266.98-2.2L266.98-2.2ZM284.02 14.25Q280.97 14.25 278.92 12.13 276.87 10 276.87 6.75L276.87 6.75Q276.87 2.55 280.02 0.4L280.02 0.4Q277.32 0.05 275.17-1.7 273.02-3.45 271.82-6.25 270.62-9.05 270.62-12.35L270.62-12.35Q270.62-16.05 272.2-19 273.77-21.95 276.55-23.63 279.32-25.3 282.77-25.3L282.77-25.3Q284.67-25.3 285.87-25.15L285.87-25.15 288.97-24.8 291.47-24.8 291.47 6.6Q291.47 10 289.4 12.13 287.32 14.25 284.02 14.25L284.02 14.25ZM281.07-1.5Q282.32-1.5 283.7-2.08 285.07-2.65 286.27-3.65L286.27-3.65Q287.67-4.85 288.52-6.28 289.37-7.7 289.37-8.85L289.37-8.85 289.37-23.1 284.17-23.4 282.52-23.4Q279.77-23.4 277.55-21.95 275.32-20.5 274.02-17.98 272.72-15.45 272.72-12.35L272.72-12.35Q272.72-9.4 273.85-6.93 274.97-4.45 276.9-2.98 278.82-1.5 281.07-1.5L281.07-1.5ZM284.27 12.35Q286.52 12.35 287.85 10.75 289.17 9.15 289.37 6.2L289.37 6.2 289.37-4.7Q288.42-2.95 286.42-1.35L286.42-1.35Q285.87-0.85 284.67-0.18 283.47 0.5 283.17 0.7L283.17 0.7Q282.87 0.85 281.87 1.45L281.87 1.45Q280.27 2.55 279.57 3.78 278.87 5 278.87 6.65L278.87 6.65Q278.87 9.05 280.42 10.7 281.97 12.35 284.27 12.35L284.27 12.35ZM301.77-3.8Q301.77-2.6 302.32-2 302.87-1.4 303.77-1.4L303.77-1.4Q304.62-1.4 305.27-2.2L305.27-2.2 306.82-1.1Q305.67 0.5 303.72 0.5L303.72 0.5Q301.92 0.5 300.8-0.68 299.67-1.85 299.67-3.85L299.67-3.85 299.67-25 301.77-25 301.77-3.8ZM300.72-28.75Q299.92-28.75 299.42-29.25 298.92-29.75 298.92-30.55L298.92-30.55Q298.92-31.35 299.42-31.85 299.92-32.35 300.72-32.35L300.72-32.35Q301.52-32.35 302.05-31.85 302.57-31.35 302.57-30.55L302.57-30.55Q302.57-29.75 302.05-29.25 301.52-28.75 300.72-28.75L300.72-28.75ZM334.07-2.2L335.62-1.1Q334.47 0.5 332.52 0.5L332.52 0.5Q330.72 0.5 329.59-0.68 328.47-1.85 328.47-3.85L328.47-3.85 328.47-16.85Q328.47-23.35 322.47-23.35L322.47-23.35Q319.97-23.35 317.89-22.08 315.82-20.8 313.67-17.9L313.67-17.9 313.67 0 311.57 0 311.57-18Q311.57-20.2 311.12-21.48 310.67-22.75 309.72-23.95L309.72-23.95 311.12-25.3Q312.22-24.25 312.89-22.88 313.57-21.5 313.67-20.05L313.67-20.05Q315.37-22.8 317.54-24.03 319.72-25.25 322.72-25.25L322.72-25.25Q326.47-25.25 328.52-23.35 330.57-21.45 330.57-17.9L330.57-17.9 330.57-3.8Q330.57-2.6 331.12-2 331.67-1.4 332.57-1.4L332.57-1.4Q333.42-1.4 334.07-2.2L334.07-2.2ZM349.07 0.45Q343.52 0.45 340.67-2.83 337.82-6.1 337.82-11.45L337.82-11.45Q337.82-14.9 339.02-18.05 340.22-21.2 342.72-23.23 345.22-25.25 348.87-25.25L348.87-25.25Q352.67-25.25 355.22-23.2 357.77-21.15 357.77-17.75L357.77-17.75Q357.77-14.15 354.79-12.2 351.82-10.25 346.72-10.25L346.72-10.25 340.07-10.25Q340.47-6.05 342.77-3.75 345.07-1.45 349.07-1.45L349.07-1.45Q351.32-1.45 353.19-2.1 355.07-2.75 357.07-4L357.07-4 358.12-2.55Q353.87 0.45 349.07 0.45L349.07 0.45ZM346.72-12.15Q350.72-12.15 353.19-13.5 355.67-14.85 355.67-17.8L355.67-17.8Q355.67-20.5 353.67-21.93 351.67-23.35 349.02-23.35L349.02-23.35Q345.97-23.35 343.89-21.53 341.82-19.7 340.84-17.07 339.87-14.45 339.97-12.15L339.97-12.15 346.72-12.15ZM374.31 0.45Q368.76 0.45 365.91-2.83 363.06-6.1 363.06-11.45L363.06-11.45Q363.06-14.9 364.26-18.05 365.46-21.2 367.96-23.23 370.46-25.25 374.11-25.25L374.11-25.25Q377.91-25.25 380.46-23.2 383.01-21.15 383.01-17.75L383.01-17.75Q383.01-14.15 380.04-12.2 377.06-10.25 371.96-10.25L371.96-10.25 365.31-10.25Q365.71-6.05 368.01-3.75 370.31-1.45 374.31-1.45L374.31-1.45Q376.56-1.45 378.44-2.1 380.31-2.75 382.31-4L382.31-4 383.36-2.55Q379.11 0.45 374.31 0.45L374.31 0.45ZM371.96-12.15Q375.96-12.15 378.44-13.5 380.91-14.85 380.91-17.8L380.91-17.8Q380.91-20.5 378.91-21.93 376.91-23.35 374.26-23.35L374.26-23.35Q371.21-23.35 369.14-21.53 367.06-19.7 366.09-17.07 365.11-14.45 365.21-12.15L365.21-12.15 371.96-12.15ZM399.41-25.25Q400.11-25.25 402.01-24.9L402.01-24.9 402.01-23Q400.56-23.25 399.51-23.25L399.51-23.25Q396.66-23.25 394.91-21.85L394.91-21.85Q394.16-21.2 393.31-20.18 392.46-19.15 391.86-18L391.86-18 391.86-0.05 389.76-0.05 389.76-18.1Q389.76-20.3 389.31-21.58 388.86-22.85 387.91-24.05L387.91-24.05 389.31-25.4Q390.41-24.35 391.09-23.03 391.76-21.7 391.86-20.25L391.86-20.25Q392.51-21.55 393.41-22.6 394.31-23.65 395.21-24.2L395.21-24.2Q396.91-25.25 399.41-25.25L399.41-25.25Z" opacity="1" transform="matrix(1,0,0,1,0,0)" fill="#755bb4" class="slogan-text-1" data-fill-palette-color="secondary" id="text-1"></path></svg></g></svg></g></svg></g></svg></g><g></g></svg></g></svg></g></svg></g><defs></defs></svg><rect width="512" height="320" fill="none" stroke="none" visibility="hidden"></rect></g></svg></g></svg>